<svg width="14" height="18" viewBox="0 0 14 18" fill="none" xmlns="http://www.w3.org/2000/svg">
<path fill-rule="evenodd" clip-rule="evenodd" d="M6.47015 17.53C6.61078 17.6704 6.8014 17.7493 7.00015 17.7493C7.1989 17.7493 7.38953 17.6704 7.53015 17.53L13.5302 11.53C13.6038 11.4613 13.6629 11.3785 13.7039 11.2865C13.7449 11.1945 13.767 11.0952 13.7687 10.9945C13.7705 10.8938 13.752 10.7938 13.7143 10.7004C13.6766 10.607 13.6204 10.5222 13.5492 10.451C13.478 10.3797 13.3931 10.3236 13.2998 10.2859C13.2064 10.2481 13.1063 10.2296 13.0056 10.2314C12.9049 10.2332 12.8056 10.2552 12.7136 10.2962C12.6216 10.3372 12.5388 10.3963 12.4702 10.47L7.75015 15.19V0.999989C7.75015 0.801076 7.67114 0.61031 7.53048 0.469658C7.38983 0.329006 7.19907 0.249989 7.00015 0.249989C6.80124 0.249989 6.61048 0.329006 6.46982 0.469658C6.32917 0.61031 6.25015 0.801076 6.25015 0.999989V15.19L1.53015 10.47C1.46149 10.3963 1.37869 10.3372 1.28669 10.2962C1.19469 10.2552 1.09538 10.2332 0.994676 10.2314C0.893973 10.2296 0.793944 10.2481 0.700556 10.2859C0.607168 10.3236 0.522334 10.3797 0.451115 10.451C0.379896 10.5222 0.323752 10.607 0.286031 10.7004C0.24831 10.7938 0.229785 10.8938 0.231562 10.9945C0.233339 11.0952 0.25538 11.1945 0.296372 11.2865C0.337364 11.3785 0.396466 11.4613 0.470153 11.53L6.47015 17.53Z" fill="black"/>
</svg>
