<svg width="168" height="168" viewBox="0 0 168 168" fill="none" xmlns="http://www.w3.org/2000/svg">
<path d="M114.328 60.7519L72.835 102.245L56.3374 85.8307C53.9214 83.4143 49.9218 83.4143 47.5054 85.8307C45.0894 88.2467 45.0894 92.2463 47.5054 94.6627L68.419 115.493C69.6686 116.742 71.2518 117.325 72.835 117.325C74.4182 117.325 76.001 116.742 77.251 115.493L123.16 69.5835C125.659 67.1675 125.659 63.2515 123.16 60.7515C120.744 58.3355 116.828 58.3355 114.328 60.7515L114.328 60.7519Z" fill="#044BB7"/>
<path d="M81.9998 0.677891C36.0906 1.84429 -0.403447 40.0883 0.679753 85.9979C1.17975 108.244 10.4282 128.991 26.509 144.322C42.173 159.236 62.4198 167.318 83.9166 167.318H85.9994C108.246 166.818 128.993 157.569 144.323 141.489C159.654 125.408 167.819 104.245 167.32 81.9983C166.82 59.7519 157.571 39.0051 141.491 23.6743C125.327 8.34349 104.247 0.178291 82.0002 0.677891H81.9998ZM135.241 132.823C122.16 146.487 104.58 154.32 85.6662 154.737C66.6694 155.237 48.8386 148.237 35.091 135.239C21.343 122.242 13.5942 104.578 13.1778 85.6643C12.2614 46.5871 43.2562 14.0923 82.2498 13.1759H83.9998C102.247 13.1759 119.494 20.0915 132.825 32.7559C146.49 45.8375 154.322 63.4179 154.739 82.3315C155.239 101.162 148.323 119.159 135.241 132.823Z" fill="#044BB7"/>
</svg>
