<svg width="8" height="6" viewBox="0 0 8 6" fill="none" xmlns="http://www.w3.org/2000/svg">
<path d="M2.75071 4.73747L1.30488 3.29164C1.22697 3.21373 1.12131 3.16996 1.01113 3.16996C0.900951 3.16996 0.795286 3.21373 0.717378 3.29164C0.639471 3.36955 0.595703 3.47521 0.595703 3.58539C0.595703 3.63994 0.606449 3.69396 0.627326 3.74436C0.648203 3.79477 0.678803 3.84056 0.717378 3.87914L2.45905 5.6208C2.62155 5.7833 2.88405 5.7833 3.04655 5.6208L7.45488 1.21247C7.53279 1.13456 7.57655 1.0289 7.57655 0.918721C7.57655 0.808544 7.53279 0.702879 7.45488 0.624971C7.37697 0.547064 7.27131 0.503296 7.16113 0.503296C7.05095 0.503296 6.94529 0.547064 6.86738 0.624971L2.75071 4.73747Z" fill="white"/>
</svg>
