<svg width="18" height="18" viewBox="0 0 18 18" fill="none" xmlns="http://www.w3.org/2000/svg">
<path d="M5.41602 12.5832C5.56879 12.7359 5.76324 12.8123 5.99935 12.8123C6.23546 12.8123 6.4299 12.7359 6.58268 12.5832L8.99935 10.1665L11.4368 12.604C11.5896 12.7568 11.7807 12.8296 12.0102 12.8223C12.2391 12.8157 12.4299 12.7359 12.5827 12.5832C12.7355 12.4304 12.8118 12.2359 12.8118 11.9998C12.8118 11.7637 12.7355 11.5693 12.5827 11.4165L10.166 8.99984L12.6035 6.56234C12.7563 6.40956 12.8291 6.21845 12.8218 5.989C12.8152 5.76011 12.7355 5.56928 12.5827 5.4165C12.4299 5.26373 12.2355 5.18734 11.9993 5.18734C11.7632 5.18734 11.5688 5.26373 11.416 5.4165L8.99935 7.83317L6.56185 5.39567C6.40907 5.24289 6.21824 5.16984 5.98935 5.1765C5.7599 5.18373 5.56879 5.26373 5.41602 5.4165C5.26324 5.56928 5.18685 5.76373 5.18685 5.99984C5.18685 6.23595 5.26324 6.43039 5.41602 6.58317L7.83268 8.99984L5.39518 11.4373C5.2424 11.5901 5.16963 11.7809 5.17685 12.0098C5.18352 12.2393 5.26324 12.4304 5.41602 12.5832ZM8.99935 17.3332C7.84657 17.3332 6.76324 17.1143 5.74935 16.6765C4.73546 16.2393 3.85352 15.6457 3.10352 14.8957C2.35352 14.1457 1.7599 13.2637 1.32268 12.2498C0.884905 11.2359 0.666016 10.1526 0.666016 8.99984C0.666016 7.84706 0.884905 6.76373 1.32268 5.74984C1.7599 4.73595 2.35352 3.854 3.10352 3.104C3.85352 2.354 4.73546 1.76011 5.74935 1.32234C6.76324 0.885115 7.84657 0.666504 8.99935 0.666504C10.1521 0.666504 11.2355 0.885115 12.2493 1.32234C13.2632 1.76011 14.1452 2.354 14.8952 3.104C15.6452 3.854 16.2388 4.73595 16.676 5.74984C17.1138 6.76373 17.3327 7.84706 17.3327 8.99984C17.3327 10.1526 17.1138 11.2359 16.676 12.2498C16.2388 13.2637 15.6452 14.1457 14.8952 14.8957C14.1452 15.6457 13.2632 16.2393 12.2493 16.6765C11.2355 17.1143 10.1521 17.3332 8.99935 17.3332ZM8.99935 15.6665C10.8466 15.6665 12.4196 15.0173 13.7185 13.719C15.0168 12.4201 15.666 10.8471 15.666 8.99984C15.666 7.15261 15.0168 5.57956 13.7185 4.28067C12.4196 2.98234 10.8466 2.33317 8.99935 2.33317C7.15213 2.33317 5.57935 2.98234 4.28102 4.28067C2.98213 5.57956 2.33268 7.15261 2.33268 8.99984C2.33268 10.8471 2.98213 12.4201 4.28102 13.719C5.57935 15.0173 7.15213 15.6665 8.99935 15.6665Z" fill="#1E3A71"/>
</svg>
