<svg width="210" height="36" viewBox="0 0 210 36" fill="none" xmlns="http://www.w3.org/2000/svg">
<path d="M31.5547 21.4384C30.9301 21.8201 30.2014 21.8895 29.6462 21.5772C28.9522 21.1608 28.5357 20.2239 28.5357 18.9399V15.0187C28.5357 13.1448 27.807 11.7915 26.5578 11.4445C24.441 10.8198 22.8448 13.4224 22.2548 14.3941L18.5071 20.3974V13.006C18.4724 11.3057 17.9172 10.2993 16.8761 9.98703C16.1821 9.77882 15.1411 9.88293 14.1348 11.4098L5.77177 24.8044C4.66133 22.6877 4.07141 20.328 4.07141 17.9336C4.07141 9.84822 10.5605 3.28969 18.5071 3.28969C26.4537 3.28969 32.9428 9.84822 32.9428 17.9336V17.9683V18.003C33.0122 19.5646 32.5264 20.8138 31.5547 21.4384ZM36.1353 17.9336V17.8989V17.8642C36.1006 8.04376 28.1887 0.0277863 18.5071 0.0277863C8.79077 0.0277863 0.878906 8.04376 0.878906 17.9336C0.878906 27.7887 8.79077 35.8394 18.5071 35.8394C22.9836 35.8394 27.2171 34.139 30.479 31.0506C31.1383 30.426 31.173 29.4197 30.5484 28.7604C29.9585 28.101 28.9522 28.0663 28.2928 28.6563C28.2928 28.6563 28.2928 28.6563 28.2581 28.691C25.6208 31.1894 22.0813 32.6122 18.4377 32.6122C14.1695 32.6122 10.3523 30.7383 7.71504 27.754L15.2452 15.678V21.2649C15.2452 23.9369 16.2862 24.8044 17.1538 25.0473C18.0213 25.2902 19.3399 25.1167 20.7627 22.8612L24.8921 16.1638C25.0309 15.9556 25.135 15.7474 25.2738 15.6086V19.0093C25.2738 21.5078 26.2802 23.5205 28.0152 24.4921C29.5768 25.3943 31.5547 25.2902 33.1857 24.2839C35.1984 22.9653 36.2741 20.675 36.1353 17.9336ZM60.7037 11.8262C61.1201 12.0691 61.5019 12.659 61.5019 13.1795C61.5019 14.0124 60.8078 14.7064 60.0097 14.7064C59.8015 14.7064 59.628 14.637 59.4545 14.6023C58.5176 13.9083 57.3377 13.4571 56.0885 13.4571C53.1389 13.4571 51.1262 15.8515 51.1262 18.8358C51.1262 21.8201 53.1736 24.1798 56.0885 24.1798C57.5459 24.1798 58.8646 23.5899 59.8362 22.653C60.0791 22.4795 60.3914 22.3753 60.7037 22.3753C61.5019 22.3753 62.1265 23 62.1265 23.7981C62.1265 24.3186 61.8142 24.7697 61.4325 25.0126C60.0097 26.2272 58.1011 27.0253 56.1232 27.0253C51.612 27.0253 47.9337 23.3123 47.9337 18.7317C47.9337 14.1512 51.612 10.4381 56.1232 10.4381C57.7888 10.4034 59.3851 10.924 60.7037 11.8262ZM68.9626 15.2963C72.051 15.2963 74.6189 17.8989 74.6189 21.1261C74.6189 24.3186 72.0163 27.06 68.9626 27.06C65.7354 27.06 63.0634 24.3533 63.0634 21.1261C63.0634 17.8989 65.7354 15.2963 68.9626 15.2963ZM68.9279 24.1798C70.2813 24.1798 71.4264 22.8959 71.4264 21.1608C71.4264 19.4257 70.2813 18.3153 68.9279 18.3153C67.4705 18.3153 66.2559 19.391 66.2559 21.1608C66.2559 22.8612 67.4705 24.1798 68.9279 24.1798ZM76.5622 25.2555V17.0661C76.5622 16.1638 77.2562 15.4351 78.1584 15.4351C79.026 15.4351 79.7547 16.1638 79.7547 17.0661V25.2555C79.7547 26.1578 79.026 26.8865 78.1584 26.8865C77.2909 26.8865 76.5622 26.1231 76.5622 25.2555ZM76.3193 12.3467C76.3193 11.271 77.1521 10.4381 78.1584 10.4381C79.1995 10.4381 80.0323 11.3057 80.0323 12.3467C80.0323 13.3877 79.1995 14.2206 78.1584 14.2206C77.1174 14.1859 76.3193 13.353 76.3193 12.3467ZM85.8621 20.8138V25.2555C85.8621 26.1578 85.1334 26.8865 84.2658 26.8865C83.3983 26.8865 82.6696 26.1578 82.6696 25.2555V16.6843C82.6696 15.9903 83.2248 15.4351 83.9188 15.4351C84.6128 15.4351 85.1334 16.025 85.1334 16.6843C86.4173 15.4698 87.5625 15.2963 88.6382 15.2963C91.8307 15.2963 93.2534 17.6907 93.2534 20.4321V25.2555C93.2534 26.1578 92.5247 26.8865 91.6572 26.8865C90.7896 26.8865 90.0609 26.1578 90.0609 25.2555V20.8138C90.0609 19.4257 89.8874 18.2459 87.8748 18.2459C86.452 18.2459 85.8621 19.4257 85.8621 20.8138ZM103.594 22.5142C103.213 22.5142 102.97 22.3406 102.762 22.0977L99.0485 18.0724V25.2555C99.0485 26.1578 98.3198 26.8865 97.4523 26.8865C96.5847 26.8865 95.856 26.1578 95.856 25.2555V11.0281C95.9601 10.7852 96.203 10.6116 96.4459 10.6116C96.7236 10.6116 96.9665 10.8546 97.14 11.0281L103.074 17.6907C103.247 17.8989 103.456 18.003 103.594 18.003C103.698 18.003 103.941 17.8989 104.115 17.6907L110.049 11.0281C110.222 10.8546 110.431 10.6116 110.743 10.6116C111.02 10.6116 111.263 10.7852 111.333 11.0281V25.2555C111.333 26.1578 110.639 26.8865 109.736 26.8865C108.869 26.8865 108.14 26.1578 108.14 25.2555V18.0724L104.427 22.0977C104.15 22.3406 103.907 22.5142 103.594 22.5142ZM118.932 24.1798C120.355 24.1798 121.57 22.8959 121.57 21.1608C121.57 19.4257 120.32 18.2806 118.932 18.2806C117.544 18.2806 116.399 19.4604 116.399 21.1608C116.399 22.8265 117.51 24.1798 118.932 24.1798ZM122.333 25.6373L122.264 25.2555C121.639 26.4701 119.661 27.0253 118.412 27.0253C115.427 27.0253 113.207 24.3186 113.207 21.0914C113.207 17.8989 115.462 15.2616 118.585 15.2616C119.106 15.2616 120.91 15.4004 122.298 17.0314L122.368 16.6496C122.368 15.9556 122.888 15.4004 123.582 15.4004C124.276 15.4004 124.831 15.9903 124.831 16.6496V25.6026C124.831 26.2966 124.276 26.8518 123.582 26.8518C122.854 26.8865 122.333 26.2966 122.333 25.6373ZM133.611 18.2459H133.264C131.251 18.35 130.87 19.4951 130.87 20.8138V25.2555C130.87 26.1578 130.141 26.8865 129.273 26.8865C128.406 26.8865 127.677 26.1578 127.677 25.2555V16.6843C127.677 15.9903 128.232 15.4351 128.926 15.4351C129.62 15.4351 130.141 16.025 130.141 16.6843C131.321 15.5739 132.292 15.331 133.264 15.2963H133.576C134.34 15.2963 135.034 15.9556 135.034 16.7885C135.068 17.5519 134.374 18.2459 133.611 18.2459ZM145.93 24.4921C146.069 24.735 146.173 24.9779 146.173 25.2555C146.173 26.0884 145.409 26.8518 144.576 26.8518C144.021 26.8518 143.535 26.4354 143.154 25.9496L139.475 21.6813V25.2208C139.475 26.1231 138.747 26.8518 137.879 26.8518C137.012 26.8518 136.283 26.1231 136.283 25.2208V12.2079C136.283 11.3057 136.977 10.5769 137.879 10.5769C138.781 10.5769 139.475 11.3057 139.475 12.2079V20.328L143.154 16.2679C143.535 15.8515 143.987 15.4004 144.542 15.4004C145.34 15.4004 146.069 16.1291 146.069 16.962C146.069 17.2049 145.999 17.4825 145.86 17.6907L142.946 20.8832L145.93 24.4921ZM152.176 18.2806C151.308 18.2806 149.886 18.7317 149.886 20.0851H154.501C154.466 18.7317 153.009 18.2806 152.176 18.2806ZM156.34 22.1324H149.886C149.886 24.041 151.725 24.3533 152.523 24.3533C153.113 24.3533 153.946 24.2492 154.605 23.9369C154.813 23.7981 155.126 23.694 155.438 23.694C156.132 23.694 156.722 24.2839 156.722 25.0126C156.722 25.4984 156.41 25.9149 156.028 26.1578C155.056 26.8865 153.772 27.06 152.558 27.06C149.331 27.06 146.659 25.3249 146.659 21.2649C146.659 18.0724 148.29 15.2963 152.107 15.2963C155.195 15.2963 157.52 17.309 157.589 20.8832C157.589 21.5425 157.034 22.1324 156.34 22.1324ZM165.224 27.0253H164.356C161.927 27.0253 160.504 25.9496 160.504 22.1671V18.2459H159.671C158.908 18.2459 158.249 17.5519 158.249 16.7885C158.249 15.9556 158.943 15.2963 159.671 15.2963H160.504V12.2773C160.504 11.3751 161.198 10.6463 162.101 10.6463C162.968 10.6463 163.697 11.3751 163.697 12.2773V15.2963H165.015C165.779 15.2963 166.438 15.9556 166.438 16.7885C166.438 17.5519 165.744 18.2459 165.015 18.2459H163.697V21.5425C163.697 23.7287 163.801 24.1798 164.773 24.1798H165.224C165.987 24.1798 166.646 24.8044 166.646 25.6026C166.646 26.366 165.987 27.0253 165.224 27.0253ZM180.666 11.8262C181.082 12.0691 181.464 12.659 181.464 13.1795C181.464 14.0124 180.77 14.7064 179.972 14.7064C179.763 14.7064 179.59 14.637 179.416 14.6023C178.48 13.9083 177.3 13.4571 176.05 13.4571C173.101 13.4571 171.088 15.8515 171.088 18.8358C171.088 21.8201 173.136 24.1798 176.05 24.1798C177.508 24.1798 178.827 23.5899 179.798 22.653C180.041 22.4795 180.353 22.3753 180.666 22.3753C181.464 22.3753 182.088 23 182.088 23.7981C182.088 24.3186 181.776 24.7697 181.394 25.0126C179.972 26.2272 178.063 27.0253 176.085 27.0253C171.574 27.0253 167.896 23.3123 167.896 18.7317C167.896 14.1512 171.574 10.4381 176.085 10.4381C177.751 10.4034 179.382 10.924 180.666 11.8262ZM188.751 24.1798C190.174 24.1798 191.388 22.8959 191.388 21.1608C191.388 19.4257 190.139 18.2806 188.751 18.2806C187.328 18.2806 186.218 19.4604 186.218 21.1608C186.218 22.8265 187.363 24.1798 188.751 24.1798ZM192.152 25.6373L192.082 25.2555C191.458 26.4701 189.48 27.0253 188.231 27.0253C185.246 27.0253 183.025 24.3186 183.025 21.0914C183.025 17.8989 185.281 15.2616 188.404 15.2616C188.925 15.2616 190.729 15.4004 192.117 17.0314L192.186 16.6496C192.186 15.9556 192.707 15.4004 193.401 15.4004C194.095 15.4004 194.65 15.9903 194.65 16.6496V25.6026C194.65 26.2966 194.095 26.8518 193.401 26.8518C192.672 26.8865 192.152 26.2966 192.152 25.6373ZM203.36 24.1798C204.783 24.1798 205.893 22.8265 205.893 21.1608C205.893 19.4257 204.748 18.2806 203.36 18.2806C201.938 18.2806 200.723 19.4257 200.723 21.1608C200.723 22.8959 201.938 24.1798 203.36 24.1798ZM200.723 26.0884V30.1484C200.723 31.0506 199.994 31.7794 199.127 31.7794C198.259 31.7794 197.53 31.0506 197.53 30.1484V16.6843C197.53 15.9903 198.086 15.4351 198.78 15.4351C199.474 15.4351 199.994 16.025 199.994 16.8232C201.174 15.6086 202.632 15.2963 203.742 15.2963C206.83 15.2963 209.121 17.8989 209.121 21.1261C209.121 24.3186 206.934 27.06 203.915 27.06C202.979 27.0253 201.59 26.7477 200.723 26.0884Z" fill="#CCDAE0"/>
</svg>
