<svg width="201" height="52" viewBox="0 0 201 52" fill="none" xmlns="http://www.w3.org/2000/svg">
<g clip-path="url(#clip0_3096_403)">
<path d="M83.127 20.3141C82.5826 18.1946 81.209 16.6433 78.5147 16.6433C74.5474 16.6433 72.889 20.1331 72.889 23.673C72.889 27.2129 74.5474 30.7055 78.5147 30.7055C81.3904 30.7055 82.9818 28.561 83.2303 25.8733H86.3935C86.1339 30.2933 82.9986 33.3431 78.5147 33.3431C72.9672 33.3431 69.6504 28.9481 69.6504 23.673C69.6504 18.3979 72.9672 14.0058 78.5147 14.0058C82.6859 14.0308 85.9776 16.3314 86.3656 20.3141H83.127ZM88.3116 26.2075C88.3116 22.1245 90.7741 19.175 95.0764 19.175C99.3788 19.175 101.838 22.1245 101.838 26.2075C101.838 30.2905 99.376 33.2651 95.0764 33.2651C90.7769 33.2651 88.3116 30.3184 88.3116 26.2075ZM98.8846 26.2075C98.8846 23.907 97.7176 21.5034 95.0764 21.5034C92.4353 21.5034 91.2655 23.907 91.2655 26.2075C91.2655 28.508 92.4325 30.9423 95.0764 30.9423C97.7204 30.9423 98.8846 28.5359 98.8846 26.2075ZM104.379 14.4458H107.333V17.231H104.379V14.4458ZM104.379 19.5371H107.333V32.9058H104.379V19.5371ZM110.549 19.5371H113.341V21.5034L113.394 21.5535C113.818 20.8262 114.427 20.2233 115.16 19.8057C115.892 19.3881 116.722 19.1706 117.565 19.175C120.469 19.175 122.312 20.7263 122.312 23.7259V32.9169H119.361V24.503C119.308 22.4086 118.478 21.5034 116.742 21.5034C114.773 21.5034 113.503 23.0547 113.503 25.0182V32.903H110.549V19.5371ZM141.986 32.903H139.912L139.421 30.7334C137.684 32.6969 136.101 33.3431 133.837 33.3431C128.289 33.3431 124.972 28.9481 124.972 23.673C124.972 18.3979 128.289 14.0058 133.837 14.0058C137.879 14.0058 141.274 16.1503 141.766 20.3141H138.616C138.304 17.8827 136.179 16.6433 133.848 16.6433C129.883 16.6433 128.222 20.1331 128.222 23.673C128.222 27.2129 129.883 30.7055 133.848 30.7055C137.165 30.7584 138.979 28.7559 139.03 25.6393H134.108V23.1828H141.986V32.903ZM147.403 26.9846C147.403 29.079 148.542 30.9395 151.004 30.9395C152.716 30.9395 153.751 30.1903 154.271 28.7114H157.063C156.415 31.633 153.927 33.2595 150.999 33.2595C146.811 33.2595 144.443 30.3379 144.443 26.227C144.443 22.4281 146.931 19.1694 150.92 19.1694C155.145 19.1694 157.738 22.9712 157.244 26.9678L147.403 26.9846ZM154.296 25.035C154.193 23.1745 152.922 21.495 150.926 21.495C148.88 21.495 147.481 23.0464 147.403 25.035H154.296ZM168.551 24.01C168.317 22.3807 167.125 21.5034 165.48 21.5034C163.953 21.5034 161.801 22.3055 161.801 26.3635C161.801 28.5916 162.786 30.9395 165.352 30.9395C167.063 30.9395 168.256 29.8031 168.54 27.8897H171.494C170.936 31.3517 168.8 33.2651 165.352 33.2651C161.164 33.2651 158.847 30.2933 158.847 26.3635C158.847 22.3306 161.05 19.175 165.455 19.175C168.565 19.175 171.209 20.7263 171.494 24.01H168.551ZM173.993 14.4458H176.95V24.9403L182.302 19.5371H185.931L180.8 24.4501L186.425 32.903H182.804L178.711 26.4136L176.95 28.1209V32.903H173.993V14.4458ZM187.213 26.2075C187.213 22.1245 189.675 19.175 193.975 19.175C198.274 19.175 200.728 22.1245 200.728 26.2075C200.728 30.2905 198.266 33.2651 193.964 33.2651C189.661 33.2651 187.213 30.3184 187.213 26.2075ZM197.786 26.2075C197.786 23.907 196.619 21.5034 193.975 21.5034C191.331 21.5034 190.167 23.907 190.167 26.2075C190.167 28.508 191.334 30.9423 193.975 30.9423C196.616 30.9423 197.786 28.5359 197.786 26.2075Z" fill="#CCDAE0"/>
<path d="M53.2538 25.8816C53.277 31.1096 51.7456 36.2269 48.8534 40.5867C45.9611 44.9464 41.8379 48.3527 37.0051 50.3748C32.1723 52.3969 26.847 52.9441 21.7024 51.947C16.5579 50.95 11.8253 48.4536 8.10303 44.7734C4.38075 41.0933 1.83596 36.3947 0.790469 31.2718C-0.255026 26.1489 0.245725 20.8317 2.2294 15.9927C4.21308 11.1537 7.59059 7.01019 11.9348 4.08604C16.2791 1.16189 21.395 -0.411534 26.6357 -0.435271C33.6637 -0.466365 40.4163 2.28876 45.4081 7.22407C50.3999 12.1594 53.2221 18.8707 53.2538 25.8816Z" fill="#CCDAE0"/>
<path d="M51.2575 25.8872C51.2795 30.7214 49.8641 35.4535 47.1902 39.4853C44.5162 43.517 40.7039 46.6672 36.2353 48.5375C31.7666 50.4078 26.8424 50.9142 22.0853 49.9927C17.3281 49.0712 12.9517 46.7631 9.50951 43.3604C6.06729 39.9577 3.71384 35.6131 2.74676 30.8761C1.77969 26.1391 2.24243 21.2224 4.07646 16.7478C5.9105 12.2731 9.03346 8.44146 13.0504 5.73738C17.0674 3.03329 21.798 1.5782 26.6439 1.55612C29.8615 1.54145 33.0506 2.15917 36.0289 3.37399C39.0073 4.58881 41.7166 6.37695 44.0022 8.63631C46.2877 10.8957 48.1049 13.582 49.3497 16.5419C50.5946 19.5018 51.2429 22.6774 51.2575 25.8872Z" fill="#F4FCFF"/>
<path d="M27.2021 3.14087C28.7598 2.86349 30.3544 2.86349 31.9121 3.14087C33.4847 3.38946 35.0048 3.89775 36.4099 4.64485C37.8059 5.41077 39.0148 6.44963 40.2153 7.43C41.4158 8.41038 42.6136 9.40189 43.7527 10.4937C44.9142 11.5671 45.9281 12.7893 46.7679 14.1283C47.6339 15.4582 48.3431 16.8835 48.8814 18.3756C49.9289 21.3561 50.227 24.5475 49.7497 27.6697H49.5934C49.1335 24.6869 48.3644 21.7598 47.2984 18.9355C46.7875 17.5387 46.186 16.1767 45.4976 14.858C44.7742 13.5431 43.9782 12.2693 43.1133 11.0423C42.2311 9.80051 41.1501 8.71185 39.9138 7.81992C38.6714 6.93703 37.2419 6.36329 35.8571 5.82018C34.4723 5.27708 33.0875 4.73676 31.6497 4.32177C30.2118 3.90678 28.7405 3.59763 27.2077 3.29684L27.2021 3.14087Z" fill="#CCDAE0"/>
<path d="M39.1797 17.2532C37.4013 16.738 35.5502 16.0111 33.6908 15.2758C33.5847 14.8079 33.1687 14.2258 32.3311 13.5156C31.1111 12.46 28.8217 12.4878 26.8422 12.9585C24.6589 12.4461 22.5008 12.265 20.4208 12.7608C3.48777 17.412 13.092 28.7838 6.87158 40.2029C7.75662 42.0745 17.2966 53.0146 31.0999 50.0707C31.0999 50.0707 26.3815 38.7546 37.0327 33.3236C45.6737 28.9035 51.9193 20.7207 39.1797 17.2532Z" fill="#CCDAE0"/>
<path d="M41.2706 24.6924C41.2723 24.8953 41.2135 25.0942 41.1018 25.2638C40.99 25.4333 40.8303 25.566 40.6429 25.645C40.4555 25.7239 40.2488 25.7455 40.049 25.7072C39.8492 25.6688 39.6654 25.5721 39.5207 25.4294C39.3761 25.2867 39.2772 25.1043 39.2365 24.9055C39.1959 24.7066 39.2153 24.5002 39.2924 24.3124C39.3695 24.1246 39.5008 23.9638 39.6695 23.8505C39.8383 23.7372 40.037 23.6764 40.2404 23.6758C40.375 23.6751 40.5084 23.7008 40.633 23.7515C40.7576 23.8022 40.8709 23.8768 40.9666 23.9712C41.0623 24.0656 41.1383 24.1779 41.1905 24.3016C41.2427 24.4254 41.2699 24.5581 41.2706 24.6924Z" fill="#CCDAE0"/>
<path d="M26.8423 12.953C28.0763 13.0421 32.5406 14.4959 33.6909 15.2758C32.7388 12.4906 29.503 12.1286 26.8423 12.953Z" fill="#96B4C1"/>
<path d="M28.0174 19.9771C28.0174 20.9136 27.7391 21.829 27.2176 22.6076C26.696 23.3862 25.9548 23.9931 25.0875 24.3515C24.2202 24.7098 23.2659 24.8036 22.3452 24.6209C21.4245 24.4382 20.5788 23.9873 19.9151 23.3251C19.2513 22.6629 18.7992 21.8193 18.6161 20.9008C18.433 19.9824 18.527 19.0304 18.8862 18.1652C19.2454 17.3 19.8538 16.5606 20.6343 16.0403C21.4148 15.52 22.3325 15.2424 23.2712 15.2424C24.53 15.2424 25.7372 15.7412 26.6273 16.6291C27.5174 17.5171 28.0174 18.7214 28.0174 19.9771Z" fill="#CCDAE0"/>
<path d="M26.6129 20.0189C26.6135 20.6767 26.4184 21.3199 26.0525 21.8672C25.6865 22.4144 25.1661 22.8411 24.557 23.0932C23.9479 23.3453 23.2776 23.4116 22.6307 23.2836C21.9839 23.1556 21.3897 22.8391 20.9232 22.3741C20.4567 21.9092 20.1389 21.3166 20.0101 20.6715C19.8812 20.0263 19.9471 19.3575 20.1993 18.7497C20.4515 18.1419 20.8788 17.6224 21.427 17.2568C21.9753 16.8913 22.6199 16.6962 23.2794 16.6962C24.1628 16.6969 25.0098 17.0472 25.6347 17.67C26.2597 18.2929 26.6114 19.1376 26.6129 20.0189Z" fill="#96B4C1"/>
<path d="M45.1096 26.7757C41.2707 29.4745 36.9041 31.5104 30.7116 31.5104C27.8136 31.5104 27.2273 28.4468 25.3121 29.9452C24.3209 30.7222 20.845 32.4518 18.067 32.3293C15.2891 32.2067 10.808 30.5774 9.56561 24.6868C9.07144 30.5774 8.81737 34.9167 6.60059 39.8909C11.0174 46.9457 21.5458 52.3851 31.0997 50.0456C30.0751 42.8933 36.3402 35.8859 39.8719 32.3014C41.2065 30.945 43.7806 28.7281 45.1096 26.7645V26.7757Z" fill="#CCDAE0"/>
<path d="M44.9589 26.9539C43.7359 28.0032 42.3713 28.876 40.9051 29.5469C39.4436 30.2397 37.9199 30.7936 36.3542 31.2013C34.7908 31.6051 33.1547 31.9087 31.4991 31.7583C29.8435 31.6079 28.1488 31.0453 27.0571 29.8087L27.1102 29.7474C28.4615 30.6192 30.0054 30.9255 31.5465 30.9701C33.1113 31.0154 34.6761 30.8856 36.2118 30.583C37.7633 30.2604 39.2812 29.7942 40.7459 29.1904C42.2343 28.6234 43.6355 27.8509 44.9087 26.8954L44.9589 26.9539Z" fill="#96B4C1"/>
</g>
<defs>
<clipPath id="clip0_3096_403">
<rect width="201" height="52" fill="white"/>
</clipPath>
</defs>
</svg>
