<svg width="28" height="20" viewBox="0 0 28 20" fill="none" xmlns="http://www.w3.org/2000/svg">
<path d="M23.0872 1.6625C21.4247 0.8875 19.6247 0.325 17.7497 2.77279e-07C17.7332 -0.000525477 17.7169 0.00255963 17.7017 0.00903873C17.6866 0.0155178 17.6731 0.0252336 17.6622 0.0375005C17.4372 0.450001 17.1747 0.9875 16.9997 1.4C15.0109 1.1 12.9884 1.1 10.9997 1.4C10.8247 0.975 10.5622 0.450001 10.3247 0.0375005C10.3122 0.0125005 10.2747 2.77279e-07 10.2372 2.77279e-07C8.36216 0.325 6.57466 0.8875 4.89966 1.6625C4.88716 1.6625 4.87466 1.675 4.86216 1.6875C1.46216 6.775 0.524658 11.725 0.987158 16.625C0.987158 16.65 0.999658 16.675 1.02466 16.6875C3.27466 18.3375 5.43716 19.3375 7.57466 20C7.61216 20.0125 7.64966 20 7.66216 19.975C8.16216 19.2875 8.61216 18.5625 8.99966 17.8C9.02466 17.75 8.99966 17.7 8.94966 17.6875C8.23716 17.4125 7.56216 17.0875 6.89966 16.7125C6.84966 16.6875 6.84966 16.6125 6.88716 16.575C7.02466 16.475 7.16216 16.3625 7.29966 16.2625C7.32466 16.2375 7.36216 16.2375 7.38716 16.25C11.6872 18.2125 16.3247 18.2125 20.5747 16.25C20.5997 16.2375 20.6372 16.2375 20.6622 16.2625C20.7997 16.375 20.9372 16.475 21.0747 16.5875C21.1247 16.625 21.1247 16.7 21.0622 16.725C20.4122 17.1125 19.7247 17.425 19.0122 17.7C18.9622 17.7125 18.9497 17.775 18.9622 17.8125C19.3622 18.575 19.8122 19.3 20.2997 19.9875C20.3372 20 20.3747 20.0125 20.4122 20C22.5622 19.3375 24.7247 18.3375 26.9747 16.6875C26.9997 16.675 27.0122 16.65 27.0122 16.625C27.5622 10.9625 26.0997 6.05 23.1372 1.6875C23.1247 1.675 23.1122 1.6625 23.0872 1.6625ZM9.64966 13.6375C8.36216 13.6375 7.28716 12.45 7.28716 10.9875C7.28716 9.525 8.33716 8.3375 9.64966 8.3375C10.9747 8.3375 12.0247 9.5375 12.0122 10.9875C12.0122 12.45 10.9622 13.6375 9.64966 13.6375ZM18.3622 13.6375C17.0747 13.6375 15.9997 12.45 15.9997 10.9875C15.9997 9.525 17.0497 8.3375 18.3622 8.3375C19.6872 8.3375 20.7372 9.5375 20.7247 10.9875C20.7247 12.45 19.6872 13.6375 18.3622 13.6375Z" fill="#CCDAE0"/>
</svg>
