<svg width="30" height="30" viewBox="0 0 30 30" fill="none" xmlns="http://www.w3.org/2000/svg">
<path d="M3 15.0722C3.0014 21.0118 7.29393 26.0691 13.124 27V18.5616H10.0798V15.0722H13.1276V12.416C12.9914 11.1573 13.4187 9.9029 14.2936 8.99294C15.1685 8.08298 16.4004 7.61179 17.6551 7.70715C18.5557 7.72179 19.4541 7.80249 20.343 7.94863V10.9176H18.8262C18.3041 10.8488 17.7791 11.0223 17.3992 11.3893C17.0193 11.7563 16.8256 12.277 16.8727 12.8047V15.0722H20.1978L19.6662 18.5628H16.8727V27C23.1779 25.9974 27.5993 20.2033 26.9338 13.8154C26.2683 7.42748 20.7489 2.68192 14.3742 3.01667C7.99946 3.35142 3.00101 8.64929 3 15.0722Z" fill="#CCDAE0"/>
</svg>
