<svg width="52" height="42" viewBox="0 0 52 42" fill="none" xmlns="http://www.w3.org/2000/svg">
<path d="M41 0.375H11C7.95312 0.375 5.96094 2.01562 5.375 5.0625L1.625 22.875V36C1.62933 37.4905 2.22335 38.9187 3.27731 39.9727C4.33126 41.0267 5.75949 41.6207 7.25 41.625H44.75C46.2405 41.6207 47.6687 41.0267 48.7227 39.9727C49.7767 38.9187 50.3707 37.4905 50.375 36V22.875L46.625 5.0625C46.0391 1.89844 43.9297 0.375 41 0.375Z" stroke="black" stroke-width="2" stroke-linejoin="round"/>
<path d="M1.625 22.875H18.5C18.5 24.8641 19.2902 26.7718 20.6967 28.1783C22.1032 29.5848 24.0109 30.375 26 30.375C27.9891 30.375 29.8968 29.5848 31.3033 28.1783C32.7098 26.7718 33.5 24.8641 33.5 22.875H50.375" stroke="black" stroke-width="2" stroke-linecap="round" stroke-linejoin="round"/>
</svg>
