<svg width="30" height="30" viewBox="0 0 30 30" fill="none" xmlns="http://www.w3.org/2000/svg">
<path fill-rule="evenodd" clip-rule="evenodd" d="M10.1908 3.40334C11.4349 3.34606 11.8316 3.33334 15.0007 3.33334C18.1697 3.33334 18.5664 3.34712 19.8094 3.40334C21.0525 3.45955 21.901 3.65788 22.6434 3.94531C23.4208 4.23909 24.1261 4.69834 24.7094 5.29228C25.3034 5.87455 25.7616 6.57879 26.0543 7.35728C26.3428 8.0997 26.54 8.94818 26.5973 10.1891C26.6546 11.4353 26.6673 11.832 26.6673 15C26.6673 18.1691 26.6535 18.5658 26.5973 19.8098C26.5411 21.0508 26.3428 21.8992 26.0543 22.6417C25.7616 23.4203 25.3026 24.1257 24.7094 24.7088C24.1261 25.3027 23.4208 25.7609 22.6434 26.0536C21.901 26.3421 21.0525 26.5394 19.8116 26.5967C18.5664 26.6539 18.1697 26.6667 15.0007 26.6667C11.8316 26.6667 11.4349 26.6529 10.1908 26.5967C8.94989 26.5405 8.10141 26.3421 7.35898 26.0536C6.58042 25.7609 5.87501 25.3019 5.29186 24.7088C4.69833 24.1262 4.23902 23.4211 3.94595 22.6427C3.65853 21.9003 3.46126 21.0518 3.40398 19.8109C3.34671 18.5647 3.33398 18.168 3.33398 15C3.33398 11.8309 3.34777 11.4342 3.40398 10.1912C3.4602 8.94818 3.65853 8.0997 3.94595 7.35728C4.23945 6.57888 4.69911 5.87382 5.29292 5.29121C5.87524 4.69781 6.57994 4.2385 7.35792 3.94531C8.10035 3.65788 8.94883 3.46061 10.1897 3.40334H10.1908ZM19.715 5.50334C18.4847 5.44712 18.1157 5.43546 15.0007 5.43546C11.8857 5.43546 11.5166 5.44712 10.2863 5.50334C9.14823 5.55531 8.53095 5.74515 8.11944 5.90531C7.57535 6.11743 7.18611 6.36879 6.77777 6.77712C6.3907 7.15369 6.09281 7.61212 5.90595 8.11879C5.7458 8.53031 5.55595 9.14758 5.50398 10.2856C5.44777 11.5159 5.43611 11.885 5.43611 15C5.43611 18.115 5.44777 18.4841 5.50398 19.7144C5.55595 20.8524 5.7458 21.4697 5.90595 21.8812C6.09262 22.3871 6.39065 22.8464 6.77777 23.2229C7.15429 23.61 7.61353 23.908 8.11944 24.0947C8.53095 24.2549 9.14823 24.4447 10.2863 24.4967C11.5166 24.5529 11.8846 24.5645 15.0007 24.5645C18.1167 24.5645 18.4847 24.5529 19.715 24.4967C20.8531 24.4447 21.4703 24.2549 21.8819 24.0947C22.426 23.8826 22.8152 23.6312 23.2235 23.2229C23.6107 22.8464 23.9087 22.3871 24.0953 21.8812C24.2555 21.4697 24.4453 20.8524 24.4973 19.7144C24.5535 18.4841 24.5652 18.115 24.5652 15C24.5652 11.885 24.5535 11.5159 24.4973 10.2856C24.4453 9.14758 24.2555 8.53031 24.0953 8.11879C23.8832 7.5747 23.6319 7.18546 23.2235 6.77712C22.8469 6.39008 22.3885 6.0922 21.8819 5.90531C21.4703 5.74515 20.8531 5.55531 19.715 5.50334V5.50334ZM13.5105 18.5965C14.3427 18.9429 15.2694 18.9897 16.1322 18.7288C16.9951 18.4679 17.7406 17.9155 18.2414 17.166C18.7423 16.4165 18.9674 15.5164 18.8783 14.6194C18.7892 13.7223 18.3914 12.8841 17.7529 12.2477C17.3459 11.841 16.8538 11.5295 16.3119 11.3358C15.7701 11.142 15.192 11.0708 14.6194 11.1273C14.0467 11.1838 13.4937 11.3666 13.0001 11.6624C12.5066 11.9583 12.0848 12.3599 11.7651 12.8383C11.4454 13.3168 11.2357 13.8602 11.1512 14.4294C11.0667 14.9986 11.1094 15.5794 11.2764 16.1301C11.4433 16.6808 11.7303 17.1876 12.1166 17.6141C12.5029 18.0406 12.9789 18.3761 13.5105 18.5965ZM10.7603 10.7597C11.3172 10.2029 11.9783 9.76114 12.7058 9.45978C13.4334 9.15842 14.2132 9.00331 15.0007 9.00331C15.7881 9.00331 16.5679 9.15842 17.2955 9.45978C18.023 9.76114 18.6841 10.2029 19.241 10.7597C19.7978 11.3165 20.2395 11.9776 20.5409 12.7052C20.8422 13.4327 20.9973 14.2125 20.9973 15C20.9973 15.7875 20.8422 16.5673 20.5409 17.2948C20.2395 18.0224 19.7978 18.6835 19.241 19.2403C18.1164 20.3649 16.5911 20.9967 15.0007 20.9967C13.4102 20.9967 11.8849 20.3649 10.7603 19.2403C9.63575 18.1157 9.00396 16.5904 9.00396 15C9.00396 13.4096 9.63575 11.8843 10.7603 10.7597V10.7597ZM22.3273 9.89637C22.4653 9.7662 22.5758 9.60966 22.6522 9.43604C22.7286 9.26241 22.7694 9.07521 22.7722 8.88553C22.7749 8.69586 22.7396 8.50755 22.6683 8.33177C22.597 8.15599 22.4911 7.9963 22.357 7.86216C22.2228 7.72803 22.0631 7.62217 21.8874 7.55085C21.7116 7.47954 21.5233 7.44422 21.3336 7.44698C21.1439 7.44975 20.9567 7.49054 20.7831 7.56695C20.6095 7.64336 20.4529 7.75383 20.3228 7.89182C20.0696 8.16018 19.931 8.51665 19.9364 8.88553C19.9418 9.25442 20.0907 9.60669 20.3516 9.86756C20.6124 10.1284 20.9647 10.2774 21.3336 10.2827C21.7025 10.2881 22.059 10.1495 22.3273 9.89637V9.89637Z" fill="#CCDAE0"/>
</svg>
