<svg width="52" height="34" viewBox="0 0 52 34" fill="none" xmlns="http://www.w3.org/2000/svg">
<path d="M49.6828 13.6795C49.6677 13.588 49.6477 13.4977 49.6313 13.4061C51.3376 9.56865 51.3602 5.18691 51.3602 4.98375V3.32335L49.8986 4.11341C49.8772 4.12721 47.8034 5.21701 44.2718 5.37627C43.7423 5.40136 43.1778 5.40386 42.5818 5.37627C37.6111 1.86737 31.6725 -0.0112795 25.5873 5.09521e-05C23.4784 -0.00122253 21.3755 0.222853 19.3143 0.668468C15.4575 1.50787 11.808 3.1112 8.58136 5.38379C4.14891 5.52676 1.49046 4.12973 1.46787 4.11092L0 3.30454V4.98124C0 5.18064 0.0225861 9.34918 1.60336 13.1139C1.236 14.821 1.05138 16.5622 1.0526 18.3083C1.0526 20.8704 1.71502 23.8262 2.73249 26.6404C3.64708 29.1661 4.84772 31.5752 6.11986 33.4801C3.64959 29.7806 3.03234 22.7753 3.03234 18.3058C3.03234 17.8142 3.04907 17.3251 3.08252 16.8385C3.14055 15.9444 3.25197 15.0545 3.41623 14.1736L3.5693 14.0821C3.68472 14.0821 3.80264 14.0821 3.91806 14.0921C15.4113 14.4269 25.5082 22.1182 25.5082 31.535C25.5082 21.989 36.0467 14.21 47.752 14.0796C47.8774 14.7242 47.969 15.3775 48.0355 16.0322C48.1108 16.7846 48.1509 17.5521 48.1509 18.3108C48.1509 19.0695 48.0368 19.8257 48.0368 20.5682C48.0368 24.9436 45.1512 33.1503 45.0258 33.3848C45.3921 32.7427 46.5953 30.6258 47.7281 28.1503C48.861 25.6747 49.9224 22.8393 50.004 20.765C50.0328 19.9536 50.1294 19.1347 50.1294 18.3058C50.1294 17.4768 50.088 16.6467 50.004 15.8302C49.9262 15.1092 49.8208 14.3868 49.6828 13.6795Z" fill="#034AB5"/>
<path d="M40.1153 25.6083C39.3889 26.3608 38.4329 26.737 37.2649 26.737C35.6064 26.737 34.3794 26.7445 34.3693 26.7445H33.5576V25.9331C33.6061 24.6349 34.1614 23.4072 35.1045 22.5133C36.3717 21.3395 38.2535 20.8479 40.6937 21.0523L41.4163 21.1137L41.4389 21.8361C41.4364 21.9326 41.4929 24.1849 40.1153 25.6083Z" fill="#034AB5"/>
<path d="M17.4981 25.9331L17.4906 26.7445H16.6788C16.6663 26.7445 15.4418 26.737 13.7858 26.737C12.6178 26.737 11.653 26.3608 10.9354 25.6083C9.55532 24.1849 9.61178 21.9326 9.6168 21.8361L9.63937 21.1137L10.3595 21.0523C12.8022 20.8479 14.6815 21.3395 15.9499 22.5133C16.8936 23.4069 17.4494 24.6346 17.4981 25.9331V25.9331Z" fill="#034AB5"/>
</svg>
