<svg width="26" height="20" viewBox="0 0 26 20" fill="none" xmlns="http://www.w3.org/2000/svg">
<path d="M3.465 4.08C3.48032 3.92783 3.4598 3.77419 3.40511 3.63137C3.35041 3.48855 3.26304 3.36051 3.15 3.2575L0.815 0.42375V0H8.0625L13.665 12.3812L18.59 0H25.5V0.42375L23.5037 2.35C23.4192 2.41531 23.3539 2.50237 23.3149 2.60188C23.276 2.70139 23.2648 2.80962 23.2825 2.915V17.0825C23.2648 17.1879 23.276 17.2961 23.3149 17.3956C23.3539 17.4951 23.4192 17.5822 23.5037 17.6475L25.4537 19.575V20H15.6488V19.5762L17.6687 17.6012C17.8675 17.4012 17.8675 17.3425 17.8675 17.0375V5.585L12.2525 19.9525H11.495L4.9575 5.585V15.215C4.90375 15.6188 5.0375 16.0275 5.32 16.32L7.94625 19.53V19.9525H0.5V19.53L3.125 16.32C3.26389 16.1751 3.36697 15.9997 3.426 15.8078C3.48504 15.6159 3.49839 15.4129 3.465 15.215V4.08Z" fill="#CCDAE0"/>
</svg>
