<svg width="30" height="30" viewBox="0 0 30 30" fill="none" xmlns="http://www.w3.org/2000/svg">
<path d="M14.9823 15.4262C11.451 15.4262 8.51601 12.4937 8.51601 9.02375C8.51601 5.43375 11.451 2.5 14.9835 2.5C18.636 2.5 21.4498 5.4325 21.4498 9.02375C21.4435 10.7276 20.7609 12.3592 19.5522 13.56C18.3434 14.7608 16.7073 15.4325 15.0035 15.4275L14.9823 15.4262V15.4262ZM14.9823 6.27125C13.4873 6.27125 12.3498 7.5275 12.3498 9.025C12.3498 10.52 13.4873 11.6575 14.9835 11.6575C16.5398 11.6575 17.6173 10.52 17.6173 9.025C17.6185 7.52625 16.5398 6.27125 14.9823 6.27125ZM17.5573 20.7538L21.211 24.285C21.9298 25.0612 21.9298 26.1988 21.211 26.9175C20.4335 27.6938 19.2348 27.6938 18.636 26.9175L14.9835 23.3262L11.451 26.9175C11.0923 27.2763 10.6123 27.455 10.0723 27.455C9.65351 27.455 9.17476 27.275 8.75476 26.9175C8.03601 26.1988 8.03601 25.0613 8.75476 24.2838L12.4673 20.7525C11.1265 20.3555 9.84043 19.7933 8.63851 19.0787C7.73976 18.6 7.56101 17.4038 8.03976 16.505C8.63851 15.6075 9.71601 15.3688 10.6748 15.9675C11.973 16.7598 13.4645 17.1789 14.9854 17.1789C16.5063 17.1789 17.9978 16.7598 19.296 15.9675C20.2548 15.3688 21.391 15.6075 21.9298 16.505C22.4698 17.4038 22.2285 18.5987 21.3898 19.0787C20.2535 19.7975 18.936 20.3363 17.5585 20.755L17.5573 20.7538V20.7538Z" fill="#CCDAE0"/>
</svg>
