<svg width="131" height="131" viewBox="0 0 131 131" fill="none" xmlns="http://www.w3.org/2000/svg">
<path d="M127.777 65.5C129.557 65.5 131.008 66.944 130.921 68.7217C130.269 81.9619 125.612 94.7215 117.528 105.291C108.79 116.716 96.5348 124.947 82.6536 128.714C68.7724 132.481 54.0373 131.574 40.7229 126.133C27.4085 120.692 16.2552 111.02 8.9846 98.6098C1.71401 86.1996 -1.26955 71.7412 0.494498 57.4667C2.25854 43.1921 8.6721 29.895 18.7451 19.6281C28.8181 9.36118 41.9905 2.6953 56.2289 0.659454C69.4016 -1.22403 82.8091 0.952318 94.6773 6.85755C96.2708 7.65042 96.8209 9.62231 95.9507 11.1749V11.1749C95.0804 12.7275 93.1196 13.272 91.5219 12.4877C80.892 7.26963 68.9126 5.35689 57.1412 7.04001C44.304 8.87552 32.4278 14.8855 23.346 24.1421C14.2642 33.3987 8.48174 45.3873 6.89129 58.2572C5.30083 71.1271 7.99079 84.1627 14.5459 95.3517C21.1011 106.541 31.1569 115.261 43.1611 120.166C55.1653 125.072 68.4504 125.89 80.9656 122.493C93.4808 119.097 104.53 111.676 112.408 101.376C119.632 91.9303 123.821 80.5453 124.467 68.7214C124.564 66.9442 125.997 65.5 127.777 65.5V65.5Z" fill="#034AB5"/>
</svg>
