<svg width="30" height="30" viewBox="0 0 30 30" fill="none" xmlns="http://www.w3.org/2000/svg">
<path d="M28.4292 14.6983C28.4292 12.9919 27.0402 11.6041 25.3347 11.6041C24.5958 11.6041 23.9046 11.8744 23.3469 12.3472C23.3289 12.3583 23.3103 12.3688 23.2926 12.3802C21.2805 11.0929 18.6123 10.2709 15.6609 10.1593L17.4225 5.14991L21.8193 6.20111C21.8229 7.59101 22.9536 8.72111 24.3453 8.72111C25.7379 8.72111 26.8719 7.58801 26.8719 6.19481C26.8719 4.80101 25.7379 3.66791 24.3453 3.66791C23.2866 3.66791 22.3821 4.32251 22.0071 5.24591L16.7979 4.00091L14.6346 10.1479C11.5569 10.2058 8.76777 11.0386 6.68067 12.3691C6.11877 11.8816 5.41767 11.6038 4.66527 11.6038C2.95917 11.6038 1.57227 12.9919 1.57227 14.698C1.57227 15.7534 2.11677 16.7284 2.99907 17.296C2.94273 17.6052 2.91332 17.9187 2.91117 18.2329C2.91117 22.6987 8.32407 26.332 14.9769 26.332C21.6309 26.332 27.0441 22.6987 27.0441 18.2329C27.0424 17.9277 27.0152 17.6231 26.9625 17.3224C27.8685 16.759 28.4292 15.7699 28.4292 14.6983V14.6983ZM19.08 18.7042C18.8303 18.7042 18.5831 18.6551 18.3525 18.5595C18.1218 18.464 17.9123 18.3239 17.7358 18.1473C17.5593 17.9707 17.4194 17.7611 17.324 17.5304C17.2286 17.2997 17.1796 17.0525 17.1798 16.8028C17.1798 16.4268 17.2914 16.0592 17.5004 15.7466C17.7093 15.434 18.0063 15.1904 18.3538 15.0465C18.7012 14.9027 19.0835 14.8652 19.4523 14.9386C19.821 15.0121 20.1598 15.1933 20.4256 15.4593C20.6914 15.7252 20.8723 16.0641 20.9456 16.4329C21.0188 16.8017 20.981 17.184 20.837 17.5313C20.6929 17.8787 20.4491 18.1755 20.1364 18.3843C19.8236 18.593 19.456 18.7044 19.08 18.7042ZM19.4583 21.946C19.4013 22.0042 18.0384 23.3923 14.9556 23.3923C11.8557 23.3923 10.6167 21.9856 10.5648 21.925C10.4813 21.827 10.4401 21.6999 10.4501 21.5715C10.4601 21.4432 10.5205 21.324 10.6182 21.2401C10.7159 21.1572 10.8422 21.116 10.97 21.1253C11.0979 21.1346 11.2169 21.1937 11.3016 21.2899C11.3292 21.3211 12.3636 22.4212 14.9556 22.4212C17.5908 22.4212 18.7473 21.2818 18.7596 21.2707C18.8499 21.1817 18.9715 21.1316 19.0983 21.131C19.2251 21.1304 19.3472 21.1794 19.4384 21.2675C19.5295 21.3556 19.5827 21.4759 19.5864 21.6027C19.5901 21.7295 19.5441 21.8527 19.4583 21.946V21.946ZM9.24327 16.8028C9.2389 16.5503 9.28487 16.2995 9.37849 16.065C9.47211 15.8306 9.61151 15.6171 9.78855 15.437C9.96558 15.257 10.1767 15.114 10.4096 15.0165C10.6425 14.9189 10.8925 14.8687 11.145 14.8688C11.3975 14.869 11.6474 14.9194 11.8802 15.0172C12.113 15.1149 12.324 15.2581 12.5009 15.4383C12.6777 15.6185 12.8169 15.8321 12.9103 16.0667C13.0037 16.3013 13.0495 16.5522 13.0449 16.8046C13.0358 17.3029 12.8314 17.7777 12.4757 18.1267C12.1201 18.4758 11.6415 18.6713 11.1432 18.671C10.6448 18.6708 10.1665 18.4749 9.81115 18.1255C9.45581 17.7761 9.25188 17.3011 9.24327 16.8028V16.8028Z" fill="#CCDAE0"/>
</svg>
