<svg width="28" height="24" viewBox="0 0 28 24" fill="none" xmlns="http://www.w3.org/2000/svg">
<path d="M27.4287 11.6983C27.4287 9.99191 26.0397 8.60411 24.3342 8.60411C23.5953 8.60411 22.9041 8.87441 22.3464 9.34721C22.3284 9.35831 22.3098 9.36881 22.2921 9.38021C20.28 8.09291 17.6118 7.27091 14.6604 7.15931L16.422 2.14991L20.8188 3.20111C20.8224 4.59101 21.9531 5.72111 23.3448 5.72111C24.7374 5.72111 25.8714 4.58801 25.8714 3.19481C25.8714 1.80101 24.7374 0.667907 23.3448 0.667907C22.2861 0.667907 21.3816 1.32251 21.0066 2.24591L15.7974 1.00091L13.6341 7.14791C10.5564 7.20581 7.76728 8.03861 5.68018 9.36911C5.11828 8.88161 4.41718 8.60381 3.66478 8.60381C1.95868 8.60381 0.571777 9.99191 0.571777 11.698C0.571777 12.7534 1.11628 13.7284 1.99858 14.296C1.94224 14.6052 1.91283 14.9187 1.91068 15.2329C1.91068 19.6987 7.32358 23.332 13.9764 23.332C20.6304 23.332 26.0436 19.6987 26.0436 15.2329C26.042 14.9277 26.0147 14.6231 25.962 14.3224C26.868 13.759 27.4287 12.7699 27.4287 11.6983V11.6983ZM18.0795 15.7042C17.8298 15.7042 17.5826 15.6551 17.352 15.5595C17.1213 15.464 16.9118 15.3239 16.7353 15.1473C16.5588 14.9707 16.4189 14.7611 16.3235 14.5304C16.2281 14.2997 16.1791 14.0525 16.1793 13.8028C16.1793 13.4268 16.2909 13.0592 16.4999 12.7466C16.7088 12.434 17.0058 12.1904 17.3533 12.0465C17.7007 11.9027 18.083 11.8652 18.4518 11.9386C18.8206 12.0121 19.1593 12.1933 19.4251 12.4593C19.6909 12.7252 19.8719 13.0641 19.9451 13.4329C20.0183 13.8017 19.9805 14.184 19.8365 14.5313C19.6924 14.8787 19.4486 15.1755 19.1359 15.3843C18.8231 15.593 18.4555 15.7044 18.0795 15.7042ZM18.4578 18.946C18.4008 19.0042 17.0379 20.3923 13.9551 20.3923C10.8552 20.3923 9.61618 18.9856 9.56428 18.925C9.48082 18.827 9.43959 18.6999 9.4496 18.5715C9.4596 18.4432 9.52004 18.324 9.61768 18.2401C9.7154 18.1572 9.84175 18.116 9.96956 18.1253C10.0974 18.1346 10.2164 18.1937 10.3011 18.2899C10.3287 18.3211 11.3631 19.4212 13.9551 19.4212C16.5903 19.4212 17.7468 18.2818 17.7591 18.2707C17.8494 18.1817 17.971 18.1316 18.0978 18.131C18.2246 18.1304 18.3467 18.1794 18.4379 18.2675C18.5291 18.3556 18.5822 18.4759 18.5859 18.6027C18.5896 18.7295 18.5436 18.8527 18.4578 18.946V18.946ZM8.24278 13.8028C8.23841 13.5503 8.28438 13.2995 8.378 13.065C8.47163 12.8305 8.61102 12.617 8.78806 12.437C8.96509 12.257 9.17622 12.114 9.40911 12.0165C9.642 11.9189 9.892 11.8687 10.1445 11.8688C10.397 11.869 10.6469 11.9194 10.8797 12.0172C11.1125 12.1149 11.3235 12.2581 11.5004 12.4383C11.6773 12.6185 11.8164 12.8321 11.9098 13.0667C12.0032 13.3013 12.049 13.5522 12.0444 13.8046C12.0353 14.3029 11.8309 14.7777 11.4752 15.1267C11.1196 15.4758 10.641 15.6713 10.1427 15.671C9.64434 15.6708 9.166 15.4749 8.81066 15.1255C8.45532 14.7761 8.25139 14.3011 8.24278 13.8028V13.8028Z" fill="#CCDAE0"/>
</svg>
