<svg width="16" height="16" viewBox="0 0 16 16" fill="none" xmlns="http://www.w3.org/2000/svg">
<path d="M15.2545 13.9524L12.1216 10.8204C12.9307 9.74226 13.4156 8.40746 13.4156 6.95854C13.4156 3.39826 10.5185 0.501221 6.9583 0.501221C3.39802 0.501221 0.500977 3.39826 0.500977 6.95854C0.500977 10.5188 3.39802 13.4158 6.9583 13.4158C8.47054 13.4158 9.8595 12.8901 10.961 12.0161L14.0763 15.1305C14.1536 15.208 14.2454 15.2695 14.3465 15.3114C14.4476 15.3533 14.5559 15.3748 14.6654 15.3747C14.7748 15.3748 14.8832 15.3533 14.9843 15.3114C15.0854 15.2695 15.1772 15.208 15.2545 15.1305C15.5802 14.8048 15.5802 14.2782 15.2545 13.9524ZM1.75078 6.95854C1.75078 4.08734 4.08706 1.75102 6.9583 1.75102C9.8295 1.75102 12.1658 4.0873 12.1658 6.95854C12.1658 9.82974 9.8295 12.166 6.9583 12.166C4.0871 12.166 1.75078 9.82974 1.75078 6.95854Z" fill="#121330"/>
</svg>
