<svg width="16" height="16" viewBox="0 0 16 16" fill="none" xmlns="http://www.w3.org/2000/svg">
<path d="M15.318 10.8905C15.0736 10.6461 14.6771 10.646 14.4327 10.8905L11.9595 13.3636L11.9597 5.29153C11.9597 4.94581 11.6794 4.66553 11.3337 4.66553C10.9879 4.66553 10.7077 4.94577 10.7077 5.29149L10.7074 13.3636L8.23463 10.8909C7.99011 10.6464 7.59379 10.6464 7.34935 10.8909C7.10491 11.1354 7.10491 11.5317 7.34935 11.7762L10.8907 15.3176C10.8919 15.3187 10.8931 15.3196 10.8942 15.3206C10.9077 15.334 10.9218 15.3468 10.9365 15.3589C10.9441 15.3652 10.9522 15.3706 10.96 15.3765C10.9685 15.3828 10.9769 15.3894 10.9857 15.3954C10.9949 15.4015 11.0044 15.4069 11.0138 15.4125C11.0219 15.4173 11.0299 15.4224 11.0382 15.4269C11.0478 15.432 11.0576 15.4363 11.0673 15.4409C11.0761 15.445 11.0847 15.4494 11.0937 15.4532C11.1032 15.4571 11.1129 15.4603 11.1226 15.4637C11.1322 15.4672 11.1417 15.4708 11.1515 15.4738C11.1612 15.4768 11.171 15.4789 11.1807 15.4814C11.1908 15.4839 11.2007 15.4867 11.211 15.4888C11.2221 15.491 11.2333 15.4923 11.2446 15.4939C11.2536 15.4952 11.2625 15.4969 11.2716 15.4978C11.2921 15.4998 11.3127 15.5009 11.3334 15.5009C11.354 15.5009 11.3746 15.4998 11.3952 15.4978C11.4045 15.4968 11.4135 15.4951 11.4226 15.4938C11.4337 15.4922 11.4447 15.4909 11.4557 15.4888C11.4661 15.4867 11.4763 15.4838 11.4865 15.4812C11.4961 15.4788 11.5057 15.4768 11.5152 15.4739C11.5251 15.4709 11.5347 15.4671 11.5444 15.4636C11.554 15.4602 11.5636 15.457 11.573 15.4532C11.582 15.4494 11.5907 15.445 11.5995 15.4409C11.6092 15.4363 11.619 15.432 11.6285 15.4269C11.6369 15.4224 11.6449 15.4173 11.653 15.4124C11.6624 15.4068 11.6719 15.4015 11.6811 15.3954C11.69 15.3894 11.6984 15.3827 11.707 15.3763C11.7147 15.3705 11.7227 15.3651 11.7302 15.359C11.7461 15.3459 11.7615 15.3321 11.7761 15.3175L15.3179 11.7758C15.5624 11.5314 15.5624 11.135 15.318 10.8905Z" fill="white"/>
<path d="M7.76571 5.10892C8.01023 5.35336 8.40655 5.3534 8.65099 5.10892C8.89543 4.86444 8.89543 4.46812 8.65099 4.22364L5.10959 0.682283C5.10851 0.681203 5.10727 0.680323 5.10619 0.679243C5.09264 0.665824 5.07849 0.653024 5.06379 0.640883C5.05627 0.634723 5.04839 0.629363 5.04067 0.623603C5.03203 0.617163 5.02355 0.610443 5.01459 0.604443C5.00555 0.598403 4.99615 0.593123 4.98687 0.587603C4.97863 0.582683 4.97051 0.577483 4.96203 0.572923C4.95259 0.567883 4.94291 0.563603 4.93331 0.559083C4.92443 0.554883 4.91567 0.550483 4.90655 0.546683C4.89715 0.542803 4.88751 0.539643 4.87799 0.536243C4.86827 0.532763 4.85871 0.529003 4.84875 0.526003C4.83911 0.523083 4.82931 0.520923 4.81955 0.518483C4.80951 0.515963 4.79959 0.513163 4.78935 0.511123C4.77791 0.508843 4.76635 0.507483 4.75483 0.505843C4.74615 0.504603 4.73763 0.502963 4.72883 0.502083C4.68765 0.498004 4.64617 0.498004 4.60499 0.502083C4.59651 0.502923 4.58831 0.504523 4.57995 0.505683C4.56807 0.507323 4.55619 0.508763 4.54439 0.511123C4.53455 0.513083 4.52503 0.515803 4.51535 0.518203C4.50519 0.520723 4.49499 0.523003 4.48495 0.526043C4.47547 0.528923 4.46631 0.532483 4.45699 0.535803C4.44699 0.539363 4.43699 0.542643 4.42715 0.546723C4.41847 0.550323 4.41019 0.554603 4.40171 0.558563C4.39163 0.563283 4.38151 0.567723 4.37167 0.573003C4.36359 0.577323 4.35591 0.582323 4.34803 0.587003C4.33839 0.592723 4.32863 0.598203 4.31923 0.604483C4.31043 0.610363 4.30215 0.616963 4.29367 0.623283C4.28583 0.629123 4.27779 0.634603 4.27015 0.640883C4.25419 0.653963 4.23883 0.667763 4.22427 0.682363L0.682388 4.224C0.437908 4.46844 0.437908 4.86484 0.682348 5.10932C0.740409 5.16754 0.809404 5.21371 0.885368 5.24518C0.961331 5.27665 1.04277 5.29279 1.12499 5.29268C1.28519 5.29268 1.44539 5.23156 1.56759 5.10932L4.04087 2.63624L4.04067 10.7083C4.04067 11.054 4.32091 11.3343 4.66667 11.3343C5.01239 11.3343 5.29263 11.0541 5.29267 10.7084L5.29291 2.6362L7.76571 5.10892Z" fill="white"/>
</svg>
