<svg width="26" height="22" viewBox="0 0 26 22" fill="none" xmlns="http://www.w3.org/2000/svg">
<path fill-rule="evenodd" clip-rule="evenodd" d="M22.7213 0.5375C23.0302 0.407489 23.3683 0.362649 23.7004 0.407647C24.0325 0.452645 24.3465 0.585836 24.6097 0.793357C24.8728 1.00088 25.0756 1.27514 25.1968 1.5876C25.318 1.90006 25.3532 2.2393 25.2988 2.57L22.4638 19.7663C22.1888 21.425 20.3688 22.3763 18.8476 21.55C17.5751 20.8588 15.6851 19.7938 13.9851 18.6825C13.1351 18.1262 10.5313 16.345 10.8513 15.0775C11.1263 13.9938 15.5013 9.92125 18.0013 7.5C18.9826 6.54875 18.5351 6 17.3763 6.875C14.4988 9.0475 9.87881 12.3513 8.35131 13.2813C7.00381 14.1013 6.3013 14.2413 5.4613 14.1013C3.9288 13.8463 2.50756 13.4513 1.34756 12.97C-0.219945 12.32 -0.143695 10.165 1.34631 9.5375L22.7213 0.5375Z" fill="#CCDAE0"/>
</svg>
