<svg width="28" height="22" viewBox="0 0 28 22" fill="none" xmlns="http://www.w3.org/2000/svg">
<path d="M23.9938 3.35998C25.1143 2.6901 25.9527 1.63528 26.3525 0.392484C25.2996 1.01724 24.1476 1.45733 22.9463 1.69373C21.2807 -0.0681068 18.6419 -0.496859 16.5043 0.647054C14.3666 1.79097 13.2594 4.22435 13.8013 6.58748C9.48828 6.37095 5.46998 4.33363 2.74627 0.982484C1.32482 3.43426 2.05121 6.56846 4.40627 8.14498C3.55466 8.11761 2.72193 7.88703 1.97752 7.47248C1.97752 7.49498 1.97752 7.51748 1.97752 7.53998C1.97801 10.0939 3.77798 12.2938 6.28127 12.8C5.49135 13.0149 4.66278 13.0465 3.85877 12.8925C4.56277 15.0766 6.57571 16.5728 8.87002 16.6175C6.96981 18.1089 4.62311 18.9177 2.20752 18.9137C1.77936 18.9144 1.35153 18.8897 0.92627 18.84C3.37926 20.4163 6.23423 21.2529 9.15002 21.25C13.2066 21.2778 17.1051 19.6786 19.9734 16.81C22.8418 13.9414 24.4407 10.0428 24.4125 5.98623C24.4125 5.75373 24.4071 5.52248 24.3963 5.29248C25.4468 4.53324 26.3535 3.59267 27.0738 2.51498C26.095 2.94881 25.0569 3.23364 23.9938 3.35998Z" fill="#CCDAE0"/>
</svg>
