<svg width="21" height="19" viewBox="0 0 21 19" fill="none" xmlns="http://www.w3.org/2000/svg">
<path d="M20 0H1.33333C0.979711 0 0.640573 0.140476 0.390524 0.390524C0.140476 0.640573 0 0.979711 0 1.33333V17.3333C0 17.687 0.140476 18.0261 0.390524 18.2761C0.640573 18.5262 0.979711 18.6667 1.33333 18.6667H20C20.3536 18.6667 20.6928 18.5262 20.9428 18.2761C21.1929 18.0261 21.3333 17.687 21.3333 17.3333V1.33333C21.3333 0.979711 21.1929 0.640573 20.9428 0.390524C20.6928 0.140476 20.3536 0 20 0ZM1.33333 17.3333V1.33333H20V17.3333H1.33333Z" fill="white"/>
<path d="M3.94629 7.33331C4.34185 7.33331 4.72853 7.21602 5.05743 6.99625C5.38633 6.77649 5.64267 6.46413 5.79405 6.09868C5.94542 5.73323 5.98503 5.3311 5.90786 4.94313C5.83069 4.55517 5.64021 4.19881 5.3605 3.9191C5.0808 3.6394 4.72443 3.44891 4.33647 3.37174C3.94851 3.29457 3.54637 3.33418 3.18092 3.48555C2.81547 3.63693 2.50311 3.89328 2.28335 4.22217C2.06359 4.55107 1.94629 4.93775 1.94629 5.33331C1.94629 5.86375 2.157 6.37246 2.53208 6.74753C2.90715 7.1226 3.41586 7.33331 3.94629 7.33331ZM3.94629 4.26665C4.15753 4.26533 4.36442 4.32676 4.5407 4.44316C4.71699 4.55956 4.85474 4.72569 4.9365 4.92048C5.01826 5.11527 5.04033 5.32994 4.99993 5.53729C4.95953 5.74464 4.85847 5.93533 4.70956 6.08517C4.56066 6.23502 4.37061 6.33727 4.16352 6.37897C3.95642 6.42067 3.74161 6.39994 3.54631 6.31941C3.35102 6.23887 3.18403 6.10216 3.06653 5.92661C2.94902 5.75106 2.88629 5.54456 2.88629 5.33331C2.88804 5.05272 3.00028 4.78412 3.19869 4.58571C3.3971 4.3873 3.6657 4.27506 3.94629 4.27331V4.26665Z" fill="white"/>
<path d="M13.1863 8.24666L9.58629 11.8467L6.91962 9.17999C6.79471 9.05582 6.62575 8.98613 6.44962 8.98613C6.2735 8.98613 6.10453 9.05582 5.97962 9.17999L1.94629 13.2667V15.1533L6.47296 10.6267L8.66629 12.7867L6.16629 15.2867H7.99962L13.633 9.65332L17.9996 14V12.12L14.1263 8.24666C14.0014 8.12249 13.8324 8.0528 13.6563 8.0528C13.4802 8.0528 13.3112 8.12249 13.1863 8.24666Z" fill="white"/>
</svg>
