<svg width="30" height="30" viewBox="0 0 30 30" fill="none" xmlns="http://www.w3.org/2000/svg">
<path d="M26.9738 8.56873C27.1488 7.98748 26.9737 7.56123 26.1462 7.56123H23.405C22.7075 7.56123 22.3887 7.92998 22.2137 8.33498C22.2137 8.33498 20.82 11.7337 18.845 13.9375C18.2075 14.5787 17.9163 14.7812 17.5688 14.7812C17.395 14.7812 17.1425 14.5787 17.1425 13.9975V8.56873C17.1425 7.87123 16.9413 7.56123 16.36 7.56123H12.0525C11.6175 7.56123 11.355 7.88373 11.355 8.19123C11.355 8.85123 12.3425 9.00373 12.4437 10.8637V14.8987C12.4437 15.7825 12.285 15.9437 11.935 15.9437C11.0063 15.9437 8.74625 12.5325 7.405 8.62748C7.14375 7.86873 6.88 7.56248 6.18 7.56248H3.44C2.65625 7.56248 2.5 7.93123 2.5 8.33623C2.5 9.06373 3.42875 12.6637 6.82625 17.425C9.09125 20.6762 12.28 22.4387 15.185 22.4387C16.9262 22.4387 17.1413 22.0475 17.1413 21.3725V18.915C17.1413 18.1325 17.3075 17.975 17.8587 17.975C18.2637 17.975 18.9612 18.18 20.5875 19.7462C22.445 21.6037 22.7525 22.4375 23.7963 22.4375H26.5363C27.3188 22.4375 27.71 22.0462 27.485 21.2737C27.2388 20.505 26.3512 19.3862 25.1737 18.0625C24.5337 17.3075 23.5775 16.495 23.2862 16.0887C22.88 15.565 22.9975 15.3337 23.2862 14.8687C23.2875 14.87 26.6263 10.1675 26.9738 8.56873V8.56873Z" fill="#CCDAE0"/>
</svg>
