<svg width="36" height="36" viewBox="0 0 36 36" fill="none" xmlns="http://www.w3.org/2000/svg">
<g clip-path="url(#clip0_3027_1633)">
<path d="M35.4615 22.3529C33.0566 32.0009 23.2816 37.8658 13.6474 35.4607C3.99907 33.0557 -1.86583 23.2812 0.539278 13.6471C2.94425 3.99908 12.705 -1.86583 22.3533 0.539279C31.9875 2.93019 37.8666 12.7047 35.4615 22.3529Z" fill="url(#paint0_linear_3027_1633)"/>
<path d="M26.5701 15.757C26.9217 13.3664 25.1076 12.0727 22.6045 11.2149L23.4201 7.96642L21.4514 7.47423L20.6639 10.6383C20.1436 10.5117 19.6092 10.3852 19.0748 10.2727L19.8623 7.09454L17.8936 6.60236L17.092 9.83673C16.6561 9.73829 16.2342 9.63986 15.8264 9.54142V9.52736L13.0982 8.85236L12.5779 10.9617C12.5779 10.9617 14.0404 11.2992 14.0123 11.3133C14.8139 11.5102 14.9545 12.0445 14.9264 12.4664L13.9982 16.1649C14.0545 16.1789 14.1248 16.193 14.2092 16.2352C14.1389 16.2211 14.0686 16.207 13.9982 16.1789L12.7045 21.3539C12.6061 21.593 12.3529 21.9586 11.8045 21.818C11.8186 21.8461 10.3701 21.4664 10.3701 21.4664L9.38574 23.7305L11.9592 24.3774C12.4373 24.5039 12.9014 24.6164 13.3654 24.743L12.5498 28.0195L14.5186 28.5117L15.3342 25.2633C15.8686 25.4039 16.4029 25.5445 16.9092 25.6711L16.1076 28.9055L18.0764 29.3977L18.892 26.1211C22.267 26.7539 24.7982 26.5008 25.8529 23.4492C26.7107 21.0024 25.8107 19.582 24.0389 18.6539C25.3467 18.3586 26.317 17.5008 26.5701 15.757ZM22.0561 22.0852C21.4514 24.532 17.317 23.2102 15.9811 22.8727L17.0639 18.5274C18.3998 18.8649 22.7029 19.5258 22.0561 22.0852ZM22.6748 15.7149C22.1123 17.9508 18.6811 16.8117 17.5701 16.5305L18.5545 12.593C19.6654 12.8742 23.2514 13.3945 22.6748 15.7149Z" fill="white"/>
</g>
<defs>
<linearGradient id="paint0_linear_3027_1633" x1="1799.03" y1="-0.863999" x2="1799.03" y2="3599.64" gradientUnits="userSpaceOnUse">
<stop stop-color="#F9AA4B"/>
<stop offset="1" stop-color="#F7931A"/>
</linearGradient>
<clipPath id="clip0_3027_1633">
<rect width="36" height="36" fill="white"/>
</clipPath>
</defs>
</svg>
