<svg width="30" height="30" viewBox="0 0 30 30" fill="none" xmlns="http://www.w3.org/2000/svg">
<g clip-path="url(#clip0_3027_992)">
<path d="M15 0C23.285 0 30 6.71632 30 15C30 23.285 23.285 30 15 30C6.71632 30 0 23.2844 0 15C0 6.71632 6.71632 0 15 0Z" fill="#F5AC37"/>
<path d="M15.5527 16.0591H21.2525C21.374 16.0591 21.4314 16.0591 21.4402 15.8998C21.4867 15.32 21.4867 14.7367 21.4402 14.1562C21.4402 14.0435 21.3841 13.9969 21.262 13.9969H9.91846C9.77806 13.9969 9.74026 14.0435 9.74026 14.1751V15.8438C9.74026 16.0591 9.74026 16.0591 9.96504 16.0591H15.5527ZM20.8036 12.0468C20.8198 12.0043 20.8198 11.9577 20.8036 11.9159C20.7084 11.7087 20.5957 11.5109 20.4648 11.3253C20.2677 11.008 20.0355 10.7157 19.7709 10.4532C19.646 10.2945 19.5015 10.1521 19.3395 10.0313C18.5282 9.34074 17.5636 8.85204 16.5268 8.60634C16.0036 8.48889 15.469 8.43286 14.9331 8.43759H9.89889C9.75849 8.43759 9.73959 8.49361 9.73959 8.61579V11.9436C9.73959 12.084 9.73959 12.1218 9.91779 12.1218H20.7361C20.7361 12.1218 20.8299 12.1029 20.8488 12.0468H20.8029H20.8036ZM20.8036 18.0092C20.6443 17.9916 20.4837 17.9916 20.3244 18.0092H9.92791C9.78751 18.0092 9.74026 18.0092 9.74026 18.1968V21.4504C9.74026 21.6002 9.74026 21.638 9.92791 21.638H14.7279C14.9574 21.6556 15.1869 21.6394 15.4117 21.5914C16.1083 21.5415 16.7934 21.3903 17.4468 21.1412C17.6844 21.0589 17.9139 20.9515 18.1306 20.8226H18.1961C19.3213 20.2374 20.2353 19.318 20.8117 18.1894C20.8117 18.1894 20.8772 18.0477 20.8036 18.0105V18.0092ZM7.85632 23.3249V23.2688V21.0845V20.344V18.1408C7.85632 18.0186 7.85632 18.0004 7.70647 18.0004H5.672C5.55927 18.0004 5.5127 18.0004 5.5127 17.8506V16.0692H7.68757C7.80907 16.0692 7.85632 16.0692 7.85632 15.9099V14.1475C7.85632 14.0347 7.85632 14.0071 7.70647 14.0071H5.672C5.55927 14.0071 5.5127 14.0071 5.5127 13.8572V12.2075C5.5127 12.1042 5.5127 12.0765 5.66255 12.0765H7.67812C7.81852 12.0765 7.85632 12.0765 7.85632 11.8983V6.84525C7.85632 6.69539 7.85632 6.65759 8.04397 6.65759H15.0748C15.5851 6.67784 16.0921 6.73387 16.5936 6.82634C17.627 7.01737 18.62 7.3866 19.5279 7.91378C20.13 8.26816 20.6841 8.69611 21.1776 9.18887C21.5488 9.5743 21.8836 9.99145 22.1806 10.4356C22.4756 10.8858 22.7206 11.3671 22.913 11.87C22.9366 12.0009 23.0622 12.0894 23.1931 12.0671H24.8712C25.0865 12.0671 25.0865 12.0671 25.096 12.2736V13.8113C25.096 13.9612 25.04 13.999 24.8894 13.999H23.5955C23.4645 13.999 23.4267 13.999 23.4362 14.1677C23.4875 14.7388 23.4875 15.3119 23.4362 15.8829C23.4362 16.0422 23.4361 16.0611 23.615 16.0611H25.0953C25.1608 16.1455 25.0953 16.2299 25.0953 16.3149C25.1048 16.4236 25.1048 16.5336 25.0953 16.6423V17.777C25.0953 17.9363 25.0487 17.9835 24.9077 17.9835H23.1358C23.0122 17.9599 22.8921 18.0389 22.8637 18.1617C22.4419 19.2586 21.7669 20.2421 20.8947 21.0305C20.5761 21.3174 20.2413 21.5874 19.8917 21.8365C19.5164 22.0525 19.1512 22.2772 18.7665 22.4555C18.0584 22.7741 17.3159 23.009 16.5538 23.1581C15.8302 23.2877 15.0964 23.3465 14.36 23.3363H7.85362V23.3269L7.85632 23.3249Z" fill="#FEFEFD"/>
</g>
<defs>
<clipPath id="clip0_3027_992">
<rect width="30" height="30" fill="white"/>
</clipPath>
</defs>
</svg>
