<svg width="36" height="36" viewBox="0 0 36 36" fill="none" xmlns="http://www.w3.org/2000/svg">
<g clip-path="url(#clip0_3002_1240)">
<path d="M35.4615 22.3529C33.0566 32.0009 23.2816 37.8658 13.6474 35.4607C3.99907 33.0557 -1.86583 23.2812 0.539278 13.6471C2.94425 3.99908 12.705 -1.86583 22.3533 0.539279C31.9875 2.93019 37.8666 12.7047 35.4615 22.3529Z" fill="url(#paint0_linear_3002_1240)"/>
<path d="M17.9976 6L17.8447 6.52398V21.7287L17.9976 21.8826L24.9955 17.7107L17.9976 6Z" fill="#343434"/>
<path d="M17.9979 6L11 17.7107L17.9979 21.8826V14.5027V6Z" fill="#8C8C8C"/>
<path d="M17.9982 23.219L17.9121 23.3249V28.7411L17.9982 28.9949L25.0003 19.0492L17.9982 23.219Z" fill="#3C3C3B"/>
<path d="M17.9979 28.9948V23.2189L11 19.0491L17.9979 28.9948Z" fill="#8C8C8C"/>
<path d="M17.998 21.8825L24.9959 17.7107L17.998 14.5027V21.8825Z" fill="#141414"/>
<path d="M11 17.7107L17.9978 21.8825V14.5027L11 17.7107Z" fill="#393939"/>
</g>
<defs>
<linearGradient id="paint0_linear_3002_1240" x1="1799.03" y1="-0.863999" x2="1799.03" y2="3599.64" gradientUnits="userSpaceOnUse">
<stop stop-color="#F0F0F0"/>
<stop offset="1" stop-color="#F0F0F0"/>
</linearGradient>
<clipPath id="clip0_3002_1240">
<rect width="36" height="36" fill="white"/>
</clipPath>
</defs>
</svg>
