<svg width="30" height="30" viewBox="0 0 30 30" fill="none" xmlns="http://www.w3.org/2000/svg">
<g clip-path="url(#clip0_3027_999)">
<path d="M15 30C23.3125 30 30 23.3125 30 15C30 6.68745 23.3125 0 15 0C6.68745 0 0 6.68745 0 15C0 23.3125 6.68745 30 15 30Z" fill="#2775CA"/>
<path d="M19.125 17.3749C19.125 15.1875 17.8125 14.4375 15.1875 14.125C13.3125 13.875 12.9375 13.375 12.9375 12.4999C12.9375 11.6248 13.5625 11.0625 14.8125 11.0625C15.9375 11.0625 16.5625 11.4375 16.875 12.375C16.9375 12.5625 17.125 12.6874 17.3125 12.6874H18.3124C18.5624 12.6874 18.75 12.4999 18.75 12.25V12.1875C18.4999 10.8124 17.3749 9.74999 15.9375 9.62504V8.12504C15.9375 7.87499 15.75 7.68749 15.4375 7.62494H14.5C14.25 7.62494 14.0625 7.81244 13.9999 8.12504V9.56249C12.1249 9.81254 10.9375 11.0625 10.9375 12.625C10.9375 14.6875 12.1875 15.4999 14.8125 15.8125C16.5625 16.125 17.125 16.5 17.125 17.5C17.125 18.5001 16.2499 19.1875 15.0625 19.1875C13.4374 19.1875 12.8749 18.4999 12.6874 17.5624C12.625 17.3125 12.4375 17.1874 12.25 17.1874H11.1874C10.9375 17.1874 10.75 17.3749 10.75 17.625V17.6875C10.9999 19.2499 12 20.3749 14.0625 20.6875V22.1875C14.0625 22.4374 14.25 22.6249 14.5624 22.6875H15.4999C15.7499 22.6875 15.9375 22.5 16 22.1875V20.6875C17.875 20.3749 19.125 19.0624 19.125 17.3749Z" fill="white"/>
<path d="M11.8127 23.9375C6.93774 22.1876 4.43769 16.7501 6.25029 11.9375C7.18779 9.31246 9.25029 7.31251 11.8127 6.37501C12.0628 6.25006 12.1877 6.06256 12.1877 5.74996V4.87501C12.1877 4.62496 12.0628 4.43746 11.8127 4.37506C11.7502 4.37506 11.6252 4.37506 11.5627 4.43746C5.62524 6.31246 2.37519 12.6251 4.25019 18.5625C5.37519 22.0625 8.06274 24.75 11.5627 25.875C11.8127 26 12.0628 25.875 12.1252 25.625C12.1877 25.5626 12.1877 25.5 12.1877 25.3751V24.5C12.1877 24.3125 12.0002 24.0626 11.8127 23.9375ZM18.4378 4.43746C18.1877 4.31251 17.9377 4.43746 17.8753 4.68751C17.8127 4.75006 17.8127 4.81246 17.8127 4.93756V5.81251C17.8127 6.06256 18.0002 6.31246 18.1877 6.43756C23.0627 8.18746 25.5628 13.625 23.7502 18.4376C22.8127 21.0626 20.7502 23.0625 18.1877 24C17.9377 24.125 17.8127 24.3125 17.8127 24.6251V25.5C17.8127 25.7501 17.9377 25.9376 18.1877 26C18.2503 26 18.3752 26 18.4378 25.9376C24.3752 24.0626 27.6253 17.75 25.7503 11.8125C24.6253 8.25001 21.8752 5.56246 18.4378 4.43746Z" fill="white"/>
</g>
<defs>
<clipPath id="clip0_3027_999">
<rect width="30" height="30" fill="white"/>
</clipPath>
</defs>
</svg>
