<svg width="30" height="27" viewBox="0 0 30 27" fill="none" xmlns="http://www.w3.org/2000/svg">
<g clip-path="url(#clip0_3027_1006)">
<path fill-rule="evenodd" clip-rule="evenodd" d="M5.49352 0.128173L0.0234652 11.618C0.00265005 11.6608 -0.00394613 11.709 0.00464126 11.7558C0.0132286 11.8025 0.0365491 11.8453 0.0711922 11.8779L14.8445 26.0343C14.8865 26.0745 14.9423 26.097 15.0005 26.097C15.0586 26.097 15.1145 26.0745 15.1565 26.0343L29.9298 11.8788C29.9644 11.8462 29.9877 11.8034 29.9963 11.7567C30.0049 11.7099 29.9983 11.6616 29.9775 11.6189L24.5075 0.129057C24.4898 0.0904692 24.4614 0.0577804 24.4257 0.0348975C24.3899 0.0120145 24.3484 -9.46576e-05 24.3059 1.71043e-05H5.6968C5.65416 -0.00051334 5.61228 0.0113042 5.57621 0.0340441C5.54014 0.056784 5.51142 0.0894748 5.49352 0.128173Z" fill="#50AF95"/>
<path fill-rule="evenodd" clip-rule="evenodd" d="M16.8978 12.7979C16.7917 12.8059 16.2437 12.8386 15.0214 12.8386C14.0492 12.8386 13.3589 12.8094 13.1167 12.7979C9.35956 12.6326 6.55515 11.9786 6.55515 11.1955C6.55515 10.4125 9.35956 9.7593 13.1167 9.59137V12.1465C13.3624 12.1642 14.066 12.2058 15.0382 12.2058C16.2049 12.2058 16.7891 12.1571 16.8943 12.1474V9.59314C20.6435 9.76018 23.4417 10.4142 23.4417 11.1955C23.4417 11.9768 20.6444 12.6309 16.8943 12.797L16.8978 12.7979ZM16.8978 9.32887V7.04239H22.1301V3.55566H7.88444V7.04239H13.1159V9.32799C8.86373 9.52332 5.66602 10.3656 5.66602 11.3749C5.66602 12.3843 8.86373 13.2257 13.1159 13.4219V20.7489H16.8969V13.4193C21.1393 13.2239 24.3317 12.3825 24.3317 11.3741C24.3317 10.3656 21.142 9.5242 16.8969 9.32799L16.8978 9.32887Z" fill="white"/>
</g>
<defs>
<clipPath id="clip0_3027_1006">
<rect width="30" height="26.097" fill="white"/>
</clipPath>
</defs>
</svg>
