<?xml version="1.0" encoding="utf-8"?><svg viewBox="0 0 210 168" xmlns="http://www.w3.org/2000/svg" xmlns:xlink="http://www.w3.org/1999/xlink"><style>:root>svg{display:none}:root>svg:target{display:block}</style><svg viewBox="0 0 11 7" id="arrow" xmlns="http://www.w3.org/2000/svg"><path d="M1.75.5L5.5 4.25 9.25.5l1.5.75L5.5 6.5.25 1.25 1.75.5z"/></svg><svg viewBox="0 0 14 18" id="arrow-big" xmlns="http://www.w3.org/2000/svg"><path fill-rule="evenodd" clip-rule="evenodd" d="M6.47 17.53a.75.75 0 001.06 0l6-6a.752.752 0 00-.23-1.244.749.749 0 00-.83.184l-4.72 4.72V1a.75.75 0 10-1.5 0v14.19l-4.72-4.72a.75.75 0 10-1.06 1.06l6 6z"/></svg><svg viewBox="0 0 16 17" id="arrows" xmlns="http://www.w3.org/2000/svg"><g clip-path="url(#aca)"><path d="M9.2 2.786L3.414 8.57 9.2 14.357l-1.157 2.314-8.1-8.1 8.1-8.1L9.2 2.786z"/><path d="M16.058 2.786L10.272 8.57l5.786 5.786L14.9 16.67l-8.1-8.1 8.1-8.1 1.158 2.315z"/></g><defs><clipPath id="aca"><path transform="rotate(90 8 8)" d="M0 0h17v16H0z"/></clipPath></defs></svg><svg viewBox="0 0 22 18" id="card" xmlns="http://www.w3.org/2000/svg"><path fill-rule="evenodd" clip-rule="evenodd" d="M8.944.25h4.112c1.838 0 3.294 0 4.433.153 1.172.158 2.121.49 2.87 1.238.748.749 1.08 1.698 1.238 2.87.09.673.127 1.456.142 2.363a.758.758 0 01.004.23c.007.566.007 1.178.007 1.84v.112c0 1.838 0 3.294-.153 4.433-.158 1.172-.49 2.121-1.238 2.87-.749.748-1.698 1.08-2.87 1.238-1.14.153-2.595.153-4.433.153H8.944c-1.838 0-3.294 0-4.433-.153-1.172-.158-2.12-.49-2.87-1.238-.748-.749-1.08-1.698-1.238-2.87C.25 12.349.25 10.894.25 9.056v-.112c0-.662 0-1.274.007-1.84a.757.757 0 01.003-.23c.016-.907.053-1.69.143-2.363.158-1.172.49-2.121 1.238-2.87C2.391.893 3.34.561 4.511.403 5.651.25 7.106.25 8.944.25zm-7.192 7.5c-.002.388-.002.804-.002 1.25 0 1.907.002 3.262.14 4.29.135 1.005.39 1.585.812 2.008.423.423 1.003.677 2.01.812 1.027.138 2.381.14 4.288.14h4c1.907 0 3.262-.002 4.29-.14 1.005-.135 1.585-.389 2.008-.812.423-.423.677-1.003.812-2.009.138-1.028.14-2.382.14-4.289 0-.446 0-.862-.002-1.25H1.752zm18.472-1.5H1.776c.02-.587.054-1.094.114-1.54.135-1.005.39-1.585.812-2.008.423-.423 1.003-.677 2.01-.812 1.026-.138 2.38-.14 4.288-.14h4c1.907 0 3.262.002 4.29.14 1.005.135 1.585.389 2.008.812.423.423.677 1.003.812 2.009.06.445.094.952.114 1.539zM4.25 13a.75.75 0 01.75-.75h4a.75.75 0 110 1.5H5a.75.75 0 01-.75-.75zm6.5 0a.75.75 0 01.75-.75H13a.75.75 0 010 1.5h-1.5a.75.75 0 01-.75-.75z"/></svg><svg viewBox="0 0 8 6" id="check" xmlns="http://www.w3.org/2000/svg"><path d="M2.75 4.737L1.306 3.292a.415.415 0 10-.588.587L2.46 5.621a.415.415 0 00.588 0l4.408-4.409a.415.415 0 00-.588-.587L2.751 4.737z"/></svg><svg viewBox="0 0 168 168" id="check-success" xmlns="http://www.w3.org/2000/svg"><path d="M114.328 60.752l-41.493 41.493-16.498-16.414c-2.416-2.417-6.415-2.417-8.832 0-2.416 2.416-2.416 6.415 0 8.832l20.914 20.83a6.182 6.182 0 004.416 1.832 6.182 6.182 0 004.416-1.832l45.909-45.91c2.499-2.415 2.499-6.331 0-8.831-2.416-2.416-6.332-2.416-8.832 0z"/><path d="M82 .678C36.09 1.844-.403 40.088.68 85.998c.5 22.246 9.748 42.993 25.829 58.324 15.664 14.914 35.91 22.996 57.408 22.996h2.082c22.247-.5 42.994-9.749 58.324-25.829 15.331-16.081 23.496-37.244 22.997-59.49-.5-22.247-9.749-42.994-25.829-58.325C125.327 8.344 104.247.178 82.001.678H82zm53.241 132.145c-13.081 13.664-30.661 21.497-49.575 21.914-18.997.5-36.827-6.5-50.575-19.498-13.748-12.997-21.497-30.661-21.913-49.575-.917-39.077 30.078-71.572 69.072-72.488H84c18.247 0 35.494 6.915 48.825 19.58 13.665 13.081 21.497 30.662 21.914 49.576.5 18.83-6.416 36.827-19.498 50.491z"/></svg><svg viewBox="0 0 18 18" id="close" xmlns="http://www.w3.org/2000/svg"><path d="M5.416 12.583a.79.79 0 00.583.23.79.79 0 00.584-.23l2.416-2.417 2.438 2.438a.742.742 0 00.573.218.812.812 0 00.573-.239.79.79 0 00.229-.583.79.79 0 00-.23-.584L10.167 9l2.438-2.438a.742.742 0 00.218-.573.812.812 0 00-.24-.572.79.79 0 00-.583-.23.79.79 0 00-.583.23L8.999 7.832 6.562 5.396a.744.744 0 00-.573-.22.816.816 0 00-.573.24.79.79 0 00-.23.584c0 .236.077.43.23.583L7.833 9l-2.438 2.437a.741.741 0 00-.218.573c.007.23.086.42.239.573zm3.583 4.75a8.11 8.11 0 01-3.25-.656 8.41 8.41 0 01-2.645-1.781 8.41 8.41 0 01-1.781-2.646A8.11 8.11 0 01.666 9a8.11 8.11 0 01.657-3.25 8.41 8.41 0 011.78-2.646A8.421 8.421 0 015.75 1.322 8.119 8.119 0 019 .667c1.153 0 2.236.218 3.25.655a8.421 8.421 0 012.646 1.782 8.41 8.41 0 011.781 2.646A8.11 8.11 0 0117.333 9a8.11 8.11 0 01-.657 3.25 8.41 8.41 0 01-1.78 2.646 8.41 8.41 0 01-2.647 1.78 8.11 8.11 0 01-3.25.657zm0-1.666c1.848 0 3.42-.65 4.72-1.948 1.298-1.299 1.947-2.872 1.947-4.72 0-1.846-.65-3.42-1.947-4.718-1.3-1.299-2.872-1.948-4.72-1.948-1.847 0-3.42.65-4.718 1.948C2.982 5.58 2.333 7.153 2.333 9c0 1.847.65 3.42 1.948 4.719 1.298 1.298 2.871 1.947 4.718 1.947z"/></svg><svg viewBox="0 0 201 52" id="coingecko" xmlns="http://www.w3.org/2000/svg"><g clip-path="url(#aha)"><path d="M83.127 20.314c-.544-2.12-1.918-3.67-4.612-3.67-3.968 0-5.626 3.49-5.626 7.029 0 3.54 1.658 7.033 5.626 7.033 2.875 0 4.467-2.145 4.715-4.833h3.163c-.26 4.42-3.394 7.47-7.878 7.47-5.548 0-8.865-4.395-8.865-9.67s3.317-9.667 8.865-9.667c4.17.025 7.463 2.325 7.85 6.308h-3.238zm5.185 5.893c0-4.082 2.462-7.032 6.764-7.032 4.303 0 6.762 2.95 6.762 7.032 0 4.084-2.462 7.058-6.762 7.058-4.3 0-6.764-2.947-6.764-7.058zm10.573 0c0-2.3-1.167-4.704-3.809-4.704-2.64 0-3.81 2.404-3.81 4.704 0 2.301 1.166 4.735 3.81 4.735s3.809-2.406 3.809-4.735zm5.494-11.761h2.954v2.785h-2.954v-2.785zm0 5.091h2.954v13.369h-2.954V19.537zm6.17 0h2.792v1.966l.053.05a4.804 4.804 0 014.171-2.378c2.904 0 4.747 1.551 4.747 4.55v9.192h-2.951v-8.414c-.053-2.094-.883-3-2.619-3-1.969 0-3.239 1.552-3.239 3.515v7.885h-2.954V19.537zm31.437 13.366h-2.074l-.491-2.17c-1.737 1.964-3.32 2.61-5.584 2.61-5.548 0-8.865-4.395-8.865-9.67s3.317-9.667 8.865-9.667c4.042 0 7.437 2.144 7.929 6.308h-3.15c-.312-2.431-2.437-3.67-4.768-3.67-3.965 0-5.626 3.49-5.626 7.029 0 3.54 1.661 7.033 5.626 7.033 3.317.052 5.131-1.95 5.182-5.067h-4.922v-2.456h7.878v9.72zm5.417-5.918c0 2.094 1.139 3.954 3.601 3.954 1.712 0 2.747-.749 3.267-2.228h2.792c-.648 2.922-3.136 4.549-6.064 4.549-4.188 0-6.556-2.922-6.556-7.033 0-3.799 2.488-7.058 6.477-7.058 4.225 0 6.818 3.802 6.324 7.799l-9.841.017zm6.893-1.95c-.103-1.86-1.374-3.54-3.37-3.54-2.046 0-3.445 1.551-3.523 3.54h6.893zm14.255-1.025c-.234-1.63-1.426-2.507-3.071-2.507-1.527 0-3.679.802-3.679 4.86 0 2.229.985 4.576 3.551 4.576 1.711 0 2.904-1.136 3.188-3.05h2.954c-.558 3.463-2.694 5.376-6.142 5.376-4.188 0-6.505-2.972-6.505-6.902 0-4.032 2.203-7.188 6.608-7.188 3.11 0 5.754 1.551 6.039 4.835h-2.943zm5.442-9.564h2.957V24.94l5.352-5.403h3.629L180.8 24.45l5.625 8.453h-3.621l-4.093-6.49-1.761 1.708v4.782h-2.957V14.446zm13.22 11.761c0-4.082 2.462-7.032 6.762-7.032 4.299 0 6.753 2.95 6.753 7.032 0 4.084-2.462 7.058-6.764 7.058-4.303 0-6.751-2.947-6.751-7.058zm10.573 0c0-2.3-1.167-4.704-3.811-4.704s-3.808 2.404-3.808 4.704c0 2.301 1.167 4.735 3.808 4.735s3.811-2.406 3.811-4.735zm-144.532-.325a26.388 26.388 0 01-4.4 14.705 26.484 26.484 0 01-11.849 9.788 26.558 26.558 0 01-15.303 1.572 26.518 26.518 0 01-13.599-7.174A26.414 26.414 0 01.79 31.272a26.374 26.374 0 011.44-15.28 26.447 26.447 0 019.705-11.906 26.544 26.544 0 0133.473 3.138 26.405 26.405 0 017.846 18.658z"/><path d="M51.258 25.887a24.4 24.4 0 01-4.068 13.598 24.489 24.489 0 01-10.955 9.053 24.557 24.557 0 01-14.15 1.455A24.52 24.52 0 019.51 43.36a24.425 24.425 0 01-6.763-12.484 24.387 24.387 0 011.33-14.128 24.455 24.455 0 018.973-11.01 24.544 24.544 0 0122.98-2.365 24.506 24.506 0 017.973 5.262 24.44 24.44 0 015.348 7.906 24.39 24.39 0 011.907 9.345z"/><path d="M27.202 3.14a13.434 13.434 0 014.71 0c1.573.25 3.093.758 4.498 1.505 1.396.766 2.605 1.805 3.805 2.785 1.2.98 2.399 1.972 3.538 3.064a17.898 17.898 0 013.015 3.634 20.586 20.586 0 012.113 4.248 19.254 19.254 0 01.869 9.294h-.157a43.51 43.51 0 00-2.295-8.735 34.19 34.19 0 00-1.8-4.077 40.542 40.542 0 00-2.385-3.816 13.902 13.902 0 00-3.2-3.222c-1.242-.883-2.671-1.457-4.056-2-1.385-.543-2.77-1.083-4.207-1.498-1.438-.415-2.91-.724-4.442-1.025l-.006-.156z"/><path d="M39.18 17.253c-1.779-.515-3.63-1.242-5.49-1.977-.105-.468-.521-1.05-1.359-1.76-1.22-1.056-3.51-1.028-5.489-.557-2.183-.513-4.341-.694-6.421-.198-16.933 4.651-7.329 16.023-13.55 27.442.886 1.871 10.426 12.812 24.229 9.868 0 0-4.719-11.316 5.933-16.747 8.64-4.42 14.886-12.603 2.147-16.07z"/><path d="M41.27 24.692a1.023 1.023 0 01-1.221 1.015 1.029 1.029 0 01-.813-.802 1.023 1.023 0 011.004-1.23 1.027 1.027 0 01.95.627c.053.123.08.256.08.39zM26.842 12.953c1.234.09 5.699 1.543 6.849 2.323-.952-2.785-4.188-3.147-6.849-2.323zM28.017 19.977c0 .937-.278 1.852-.8 2.63a4.745 4.745 0 01-4.872 2.014 4.75 4.75 0 01-2.43-1.296 4.73 4.73 0 01-1.029-5.16 4.737 4.737 0 011.748-2.125 4.754 4.754 0 015.993.59 4.73 4.73 0 011.39 3.347z"/><path d="M26.613 20.019a3.32 3.32 0 01-2.056 3.074 3.341 3.341 0 01-3.634-.719 3.322 3.322 0 012.356-5.678c.884 0 1.73.351 2.356.974.625.623.976 1.468.978 2.349zM45.11 26.776c-3.84 2.698-8.206 4.734-14.398 4.734-2.898 0-3.485-3.063-5.4-1.565-.991.777-4.467 2.507-7.245 2.384-2.778-.122-7.259-1.752-8.501-7.642-.495 5.89-.749 10.23-2.965 15.204 4.416 7.055 14.945 12.494 24.499 10.155-1.025-7.153 5.24-14.16 8.772-17.745 1.334-1.356 3.909-3.573 5.238-5.537v.012z"/><path d="M44.959 26.954a17.245 17.245 0 01-4.054 2.593 25.806 25.806 0 01-4.55 1.654c-1.564.404-3.2.708-4.856.557-1.655-.15-3.35-.713-4.442-1.95l.053-.06c1.352.871 2.895 1.177 4.437 1.222a20.99 20.99 0 004.665-.387 25.537 25.537 0 004.534-1.393 17.043 17.043 0 004.163-2.295l.05.059z"/></g><defs><clipPath id="aha"><path d="M0 0h201v52H0z"/></clipPath></defs></svg><svg viewBox="0 0 210 36" id="coinmarketcap" xmlns="http://www.w3.org/2000/svg"><path d="M31.555 21.438c-.625.382-1.354.452-1.909.14-.694-.417-1.11-1.354-1.11-2.638v-3.921c0-1.874-.729-3.228-1.978-3.575-2.117-.624-3.713 1.978-4.303 2.95l-3.748 6.003v-7.391c-.035-1.7-.59-2.707-1.63-3.019-.695-.208-1.736-.104-2.742 1.423L5.772 24.804a14.804 14.804 0 01-1.7-6.87c0-8.086 6.488-14.644 14.435-14.644s14.436 6.558 14.436 14.644v.069c.07 1.562-.417 2.81-1.388 3.435zm4.58-3.504v-.07C36.101 8.044 28.19.028 18.507.028 8.791.028.88 8.044.88 17.934c0 9.855 7.912 17.905 17.628 17.905 4.477 0 8.71-1.7 11.972-4.788.66-.625.694-1.631.07-2.29-.59-.66-1.597-.695-2.256-.105l-.035.035a14.343 14.343 0 01-9.82 3.921c-4.268 0-8.086-1.874-10.723-4.858l7.53-12.076v5.587c0 2.672 1.041 3.54 1.909 3.782.867.243 2.186.07 3.609-2.186l4.13-6.697c.138-.208.242-.417.38-.555v3.4c0 2.499 1.007 4.511 2.742 5.483 1.562.902 3.54.798 5.17-.208 2.013-1.319 3.09-3.609 2.95-6.35zm24.569-6.108c.416.243.798.833.798 1.354 0 .832-.694 1.526-1.492 1.526-.209 0-.382-.069-.555-.104-.937-.694-2.117-1.145-3.366-1.145-2.95 0-4.963 2.394-4.963 5.379 0 2.984 2.048 5.344 4.963 5.344a5.39 5.39 0 003.747-1.527c.243-.173.555-.278.868-.278.798 0 1.422.625 1.422 1.423 0 .52-.312.972-.694 1.215-1.422 1.214-3.33 2.012-5.309 2.012-4.511 0-8.19-3.713-8.19-8.293 0-4.58 3.679-8.294 8.19-8.294a7.843 7.843 0 014.58 1.388zm8.259 3.47c3.088 0 5.656 2.603 5.656 5.83 0 3.193-2.603 5.934-5.656 5.934-3.228 0-5.9-2.707-5.9-5.934 0-3.227 2.672-5.83 5.9-5.83zm-.035 8.884c1.353 0 2.498-1.284 2.498-3.02 0-1.734-1.145-2.845-2.498-2.845-1.457 0-2.672 1.076-2.672 2.846 0 1.7 1.215 3.019 2.672 3.019zm7.634 1.076v-8.19c0-.902.694-1.63 1.596-1.63.868 0 1.597.728 1.597 1.63v8.19c0 .902-.729 1.63-1.597 1.63-.867 0-1.596-.763-1.596-1.63zm-.243-12.91c0-1.075.833-1.908 1.84-1.908 1.04 0 1.873.868 1.873 1.909a1.866 1.866 0 01-1.874 1.874 1.881 1.881 0 01-1.839-1.874zm9.543 8.468v4.442c0 .902-.729 1.63-1.596 1.63-.868 0-1.596-.728-1.596-1.63v-8.572c0-.694.555-1.249 1.249-1.249.694 0 1.214.59 1.214 1.25 1.284-1.215 2.43-1.389 3.505-1.389 3.193 0 4.615 2.395 4.615 5.136v4.824c0 .902-.728 1.63-1.596 1.63-.867 0-1.596-.728-1.596-1.63v-4.442c0-1.388-.174-2.568-2.186-2.568-1.423 0-2.013 1.18-2.013 2.568zm17.732 1.7c-.381 0-.624-.173-.832-.416l-3.713-4.026v7.184c0 .902-.73 1.63-1.597 1.63s-1.596-.728-1.596-1.63V11.028c.104-.243.347-.416.59-.416.278 0 .52.243.694.416l5.934 6.663c.173.208.382.312.52.312.104 0 .347-.104.521-.312l5.934-6.663c.173-.173.382-.416.694-.416.277 0 .52.173.59.416v14.228c0 .902-.694 1.63-1.597 1.63-.867 0-1.596-.728-1.596-1.63v-7.184l-3.713 4.026c-.277.243-.52.416-.833.416zm15.338 1.666c1.423 0 2.638-1.284 2.638-3.02 0-1.734-1.25-2.88-2.638-2.88s-2.533 1.18-2.533 2.88c0 1.666 1.111 3.02 2.533 3.02zm3.401 1.457l-.069-.381c-.625 1.214-2.603 1.77-3.852 1.77-2.985 0-5.205-2.707-5.205-5.935 0-3.192 2.255-5.83 5.378-5.83.521 0 2.325.14 3.713 1.77l.07-.381c0-.694.52-1.25 1.214-1.25s1.249.59 1.249 1.25v8.953c0 .694-.555 1.249-1.249 1.249-.728.035-1.249-.555-1.249-1.215zm11.278-7.391h-.347c-2.013.104-2.394 1.25-2.394 2.568v4.442c0 .902-.729 1.63-1.597 1.63-.867 0-1.596-.728-1.596-1.63v-8.572c0-.694.555-1.249 1.249-1.249.694 0 1.215.59 1.215 1.25 1.18-1.111 2.151-1.354 3.123-1.389h.312c.764 0 1.458.66 1.458 1.492.034.764-.66 1.458-1.423 1.458zm12.319 6.246c.139.243.243.486.243.764 0 .832-.764 1.596-1.597 1.596-.555 0-1.041-.417-1.422-.902l-3.679-4.269v3.54c0 .902-.728 1.63-1.596 1.63-.867 0-1.596-.728-1.596-1.63V12.208c0-.902.694-1.631 1.596-1.631.902 0 1.596.729 1.596 1.63v8.121l3.679-4.06c.381-.417.833-.868 1.388-.868.798 0 1.527.73 1.527 1.562 0 .243-.07.52-.209.729l-2.914 3.192 2.984 3.61zm6.246-6.211c-.868 0-2.29.45-2.29 1.804h4.615c-.035-1.353-1.492-1.804-2.325-1.804zm4.164 3.851h-6.454c0 1.909 1.839 2.221 2.637 2.221.59 0 1.423-.104 2.082-.416a1.57 1.57 0 01.833-.243c.694 0 1.284.59 1.284 1.319 0 .485-.312.902-.694 1.145-.972.729-2.256.902-3.47.902-3.227 0-5.899-1.735-5.899-5.795 0-3.193 1.631-5.969 5.448-5.969 3.088 0 5.413 2.013 5.482 5.587 0 .66-.555 1.25-1.249 1.25zm8.884 4.893h-.868c-2.429 0-3.852-1.075-3.852-4.858v-3.921h-.833c-.763 0-1.422-.694-1.422-1.457 0-.833.694-1.493 1.422-1.493h.833v-3.019c0-.902.694-1.63 1.597-1.63.867 0 1.596.728 1.596 1.63v3.02h1.318c.764 0 1.423.659 1.423 1.491 0 .764-.694 1.458-1.423 1.458h-1.318v3.297c0 2.186.104 2.637 1.076 2.637h.451c.763 0 1.422.624 1.422 1.423 0 .763-.659 1.422-1.422 1.422zm15.442-15.199c.416.243.798.833.798 1.354 0 .832-.694 1.526-1.492 1.526-.209 0-.382-.069-.556-.104-.936-.694-2.116-1.145-3.366-1.145-2.949 0-4.962 2.394-4.962 5.379 0 2.984 2.048 5.344 4.962 5.344 1.458 0 2.777-.59 3.748-1.527.243-.173.555-.278.868-.278.798 0 1.422.625 1.422 1.423 0 .52-.312.972-.694 1.215-1.422 1.214-3.331 2.012-5.309 2.012-4.511 0-8.189-3.713-8.189-8.293 0-4.58 3.678-8.294 8.189-8.294a7.769 7.769 0 014.581 1.388zm8.085 12.354c1.423 0 2.637-1.284 2.637-3.02 0-1.734-1.249-2.88-2.637-2.88-1.423 0-2.533 1.18-2.533 2.88 0 1.666 1.145 3.02 2.533 3.02zm3.401 1.457l-.07-.381c-.624 1.214-2.602 1.77-3.851 1.77-2.985 0-5.206-2.707-5.206-5.935 0-3.192 2.256-5.83 5.379-5.83.521 0 2.325.14 3.713 1.77l.069-.381c0-.694.521-1.25 1.215-1.25.694 0 1.249.59 1.249 1.25v8.953c0 .694-.555 1.249-1.249 1.249-.729.035-1.249-.555-1.249-1.215zm11.208-1.457c1.423 0 2.533-1.354 2.533-3.02 0-1.734-1.145-2.88-2.533-2.88-1.422 0-2.637 1.146-2.637 2.88 0 1.736 1.215 3.02 2.637 3.02zm-2.637 1.908v4.06c0 .903-.729 1.631-1.596 1.631-.868 0-1.597-.728-1.597-1.63V16.683c0-.694.556-1.249 1.25-1.249s1.214.59 1.214 1.388c1.18-1.214 2.638-1.527 3.748-1.527 3.088 0 5.379 2.603 5.379 5.83 0 3.193-2.187 5.934-5.206 5.934-.936-.035-2.325-.312-3.192-.972z"/></svg><svg viewBox="0 0 28 20" id="discord" xmlns="http://www.w3.org/2000/svg"><path d="M23.087 1.663A21.229 21.229 0 0017.75 0a.113.113 0 00-.088.038C17.437.45 17.175.988 17 1.4c-1.99-.3-4.012-.3-6 0a12.57 12.57 0 00-.675-1.362C10.312.013 10.275 0 10.237 0A21.389 21.389 0 004.9 1.663c-.013 0-.025.012-.038.024C1.462 6.776.525 11.726.987 16.626c0 .025.013.05.038.063 2.25 1.65 4.412 2.65 6.55 3.312.037.012.075 0 .087-.025.5-.688.95-1.413 1.338-2.175.025-.05 0-.1-.05-.113-.713-.274-1.388-.6-2.05-.975-.05-.024-.05-.1-.013-.137.138-.1.275-.212.413-.313a.077.077 0 01.087-.012c4.3 1.962 8.938 1.962 13.188 0a.077.077 0 01.087.012c.138.113.275.213.413.325.05.038.05.113-.013.138-.65.387-1.337.7-2.05.975-.05.012-.062.075-.05.113.4.762.85 1.487 1.338 2.175.037.012.075.024.112.012 2.15-.663 4.313-1.663 6.563-3.313a.069.069 0 00.037-.062c.55-5.662-.912-10.575-3.875-14.938-.012-.012-.025-.024-.05-.024zM9.65 13.636c-1.288 0-2.363-1.187-2.363-2.65 0-1.462 1.05-2.65 2.363-2.65 1.325 0 2.375 1.2 2.362 2.65 0 1.463-1.05 2.65-2.362 2.65zm8.712 0c-1.287 0-2.362-1.187-2.362-2.65 0-1.462 1.05-2.65 2.362-2.65 1.325 0 2.375 1.2 2.363 2.65 0 1.463-1.038 2.65-2.363 2.65z"/></svg><svg viewBox="0 0 18 18" id="exit" xmlns="http://www.w3.org/2000/svg"><path d="M2 18c-.55 0-1.02-.196-1.412-.587A1.93 1.93 0 010 16V2C0 1.45.196.98.588.588A1.93 1.93 0 012 0h7v2H2v14h7v2H2zm11-4l-1.375-1.45 2.55-2.55H6V8h8.175l-2.55-2.55L13 4l5 5-5 5z"/></svg><svg viewBox="0 0 30 30" id="facebook" xmlns="http://www.w3.org/2000/svg"><path d="M3 15.072C3.001 21.012 7.294 26.07 13.124 27v-8.438H10.08v-3.49h3.048v-2.656a4.276 4.276 0 011.166-3.423 4.22 4.22 0 013.361-1.286c.9.015 1.8.095 2.688.242v2.969h-1.517a1.728 1.728 0 00-1.427.471c-.38.367-.573.888-.526 1.416v2.267h3.325l-.532 3.49h-2.793V27c6.305-1.003 10.726-6.797 10.06-13.185-.665-6.388-6.184-11.133-12.559-10.798C8 3.35 3.001 8.649 3 15.072z"/></svg><svg viewBox="0 0 52 42" id="file-tray" xmlns="http://www.w3.org/2000/svg"><path d="M41 .375H11c-3.047 0-5.04 1.64-5.625 4.688l-3.75 17.812V36a5.642 5.642 0 005.625 5.625h37.5A5.641 5.641 0 0050.375 36V22.875l-3.75-17.813C46.039 1.898 43.93.375 41 .375z"/><path d="M1.625 22.875H18.5a7.5 7.5 0 0015 0h16.875"/></svg><svg viewBox="0 0 30 30" id="instagram" xmlns="http://www.w3.org/2000/svg"><path fill-rule="evenodd" clip-rule="evenodd" d="M10.19 3.403c1.245-.057 1.642-.07 4.81-.07 3.17 0 3.566.014 4.81.07 1.242.057 2.091.255 2.833.542a5.74 5.74 0 012.066 1.347 5.697 5.697 0 011.345 2.065c.289.743.486 1.591.543 2.832.058 1.246.07 1.643.07 4.811 0 3.17-.014 3.566-.07 4.81-.056 1.24-.254 2.09-.543 2.832a5.722 5.722 0 01-1.345 2.067 5.72 5.72 0 01-2.066 1.345c-.742.288-1.59.485-2.831.543-1.246.057-1.642.07-4.811.07-3.17 0-3.566-.014-4.81-.07-1.241-.056-2.09-.255-2.832-.543a5.724 5.724 0 01-2.067-1.345 5.719 5.719 0 01-1.346-2.066c-.287-.743-.485-1.591-.542-2.832-.057-1.246-.07-1.643-.07-4.811 0-3.17.014-3.566.07-4.809.056-1.243.255-2.091.542-2.834a5.723 5.723 0 011.347-2.066 5.719 5.719 0 012.065-1.346c.742-.287 1.59-.484 2.832-.542zm9.525 2.1c-1.23-.056-1.6-.068-4.714-.068-3.115 0-3.484.012-4.715.068-1.138.052-1.755.242-2.167.402a3.623 3.623 0 00-1.341.872 3.619 3.619 0 00-.872 1.342c-.16.411-.35 1.029-.402 2.167-.056 1.23-.068 1.599-.068 4.714s.012 3.484.068 4.714c.052 1.138.242 1.756.402 2.167.187.506.485.965.872 1.342.376.387.836.685 1.341.872.412.16 1.03.35 2.167.402 1.23.056 1.599.067 4.715.067 3.116 0 3.484-.011 4.714-.067 1.138-.052 1.755-.242 2.167-.402a3.622 3.622 0 001.341-.872 3.62 3.62 0 00.872-1.342c.16-.411.35-1.029.402-2.167.056-1.23.068-1.599.068-4.714s-.012-3.484-.068-4.714c-.052-1.138-.241-1.756-.402-2.167a3.622 3.622 0 00-.871-1.342 3.62 3.62 0 00-1.342-.872c-.412-.16-1.029-.35-2.167-.402zm-6.204 13.093a3.891 3.891 0 102.8-7.26 3.891 3.891 0 00-4.194 6.278c.386.427.862.762 1.393.982zm-2.75-7.836a5.999 5.999 0 019.78 1.945 5.997 5.997 0 11-9.78-1.945zm11.566-.864a1.418 1.418 0 10-1.946-2.063 1.418 1.418 0 001.946 2.063z"/></svg><svg viewBox="0 0 19 8" id="line" xmlns="http://www.w3.org/2000/svg"><path d="M.646 3.646a.5.5 0 000 .708l3.182 3.182a.5.5 0 10.708-.708L1.707 4l2.829-2.828a.5.5 0 10-.708-.708L.646 3.646zm17.708.708a.5.5 0 000-.708L15.172.464a.5.5 0 10-.708.708L17.293 4l-2.829 2.828a.5.5 0 10.708.708l3.182-3.182zM1 4.5h17v-1H1v1z"/></svg><svg viewBox="0 0 24 24" id="linkedIn" xmlns="http://www.w3.org/2000/svg"><path d="M13.25 23.25h-5v-15h5v2.5a5.772 5.772 0 014.406-2.204 5.625 5.625 0 015.594 5.642v9.062h-5v-8.438a2.831 2.831 0 00-2.809-2.43 2.269 2.269 0 00-2.191 2.43v8.438zm-7.5 0h-5v-15h5v15zm-2.5-17.5a2.5 2.5 0 110-5 2.5 2.5 0 010 5z"/></svg><svg viewBox="0 0 52 34" id="logo" xmlns="http://www.w3.org/2000/svg"><path d="M49.683 13.68c-.015-.092-.035-.182-.052-.274 1.707-3.837 1.73-8.22 1.73-8.422v-1.66l-1.462.79c-.022.013-2.096 1.103-5.627 1.262-.53.025-1.094.028-1.69 0A29.374 29.374 0 0025.587 0a29.601 29.601 0 00-6.273.668A29.554 29.554 0 008.581 5.384C4.15 5.527 1.491 4.13 1.468 4.11L0 3.305V4.98c0 .2.023 4.368 1.603 8.133a24.608 24.608 0 00-.55 5.194c0 2.562.662 5.518 1.68 8.332.914 2.526 2.115 4.935 3.387 6.84-2.47-3.7-3.088-10.705-3.088-15.174a22.704 22.704 0 01.384-4.132l.153-.092c.116 0 .234 0 .35.01 11.492.335 21.59 8.026 21.59 17.443 0-9.546 10.538-17.325 22.243-17.455a22.989 22.989 0 01.399 4.231c0 .759-.114 1.515-.114 2.257 0 4.376-2.886 12.582-3.011 12.817a67.761 67.761 0 002.702-5.235c1.133-2.475 2.194-5.31 2.276-7.385.029-.811.125-1.63.125-2.46 0-.828-.041-1.658-.125-2.475a25.615 25.615 0 00-.321-2.15z"/><path d="M40.115 25.608c-.726.753-1.682 1.129-2.85 1.129-1.659 0-2.886.008-2.896.008h-.811v-.812a4.968 4.968 0 011.547-3.42c1.267-1.174 3.149-1.665 5.589-1.46l.722.06.023.723c-.003.097.054 2.349-1.324 3.772zm-22.617.325l-.007.811h-.812c-.013 0-1.237-.007-2.893-.007-1.168 0-2.133-.376-2.85-1.129-1.38-1.423-1.324-3.675-1.32-3.772l.023-.722.72-.062c2.443-.204 4.322.288 5.59 1.461a4.966 4.966 0 011.55 3.42z"/></svg><svg viewBox="0 0 19 20" id="logo-icon" xmlns="http://www.w3.org/2000/svg"><mask id="ara" maskUnits="userSpaceOnUse" x="0" y="0" width="19" height="20"><path d="M18.163.327H0v19.18h18.163V.328z"/></mask><g mask="url(#ara)"><path d="M15.085 19.508H0V3.439h3.451v12.954h11.634v3.115zm0-12.956c1.7 0 3.078-1.394 3.078-3.113 0-1.718-1.378-3.112-3.079-3.112-1.7 0-3.078 1.394-3.078 3.112 0 1.72 1.378 3.113 3.079 3.113z"/></g></svg><svg viewBox="0 0 26 20" id="medium" xmlns="http://www.w3.org/2000/svg"><path d="M3.465 4.08a.98.98 0 00-.315-.823L.815.424V0h7.248l5.602 12.381L18.59 0h6.91v.424L23.504 2.35a.591.591 0 00-.222.565v14.168a.591.591 0 00.222.565l1.95 1.927V20h-9.805v-.424l2.02-1.975c.198-.2.198-.258.198-.563V5.585l-5.615 14.367h-.757L4.958 5.585v9.63c-.054.404.08.813.362 1.105l2.626 3.21v.422H.5v-.422l2.625-3.21a1.287 1.287 0 00.34-1.105V4.08z"/></svg><svg viewBox="0 0 30 30" id="ok" xmlns="http://www.w3.org/2000/svg"><path d="M14.982 15.426c-3.531 0-6.466-2.932-6.466-6.402 0-3.59 2.935-6.524 6.467-6.524 3.653 0 6.467 2.933 6.467 6.524a6.428 6.428 0 01-6.446 6.404l-.022-.002zm0-9.155c-1.495 0-2.632 1.256-2.632 2.754 0 1.495 1.137 2.633 2.633 2.633 1.557 0 2.634-1.138 2.634-2.633.002-1.499-1.077-2.754-2.635-2.754zm2.575 14.483l3.654 3.531c.719.776.719 1.914 0 2.633-.777.776-1.976.776-2.575 0l-3.652-3.592-3.533 3.591c-.359.36-.839.538-1.379.538-.418 0-.897-.18-1.317-.537-.719-.72-.719-1.857 0-2.634l3.712-3.531a16.856 16.856 0 01-3.828-1.674c-.9-.479-1.078-1.675-.6-2.574.6-.897 1.677-1.136 2.636-.537a8.274 8.274 0 008.621 0c.959-.6 2.095-.36 2.634.537.54.899.299 2.094-.54 2.574-1.137.718-2.454 1.257-3.832 1.676v-.001z"/></svg><svg viewBox="0 0 131 131" id="progress" xmlns="http://www.w3.org/2000/svg"><path d="M127.777 65.5c1.78 0 3.231 1.444 3.144 3.222A65.499 65.499 0 1194.677 6.858c1.594.792 2.144 2.764 1.274 4.317-.87 1.552-2.831 2.097-4.43 1.313a59.055 59.055 0 1032.946 56.233c.097-1.777 1.53-3.221 3.31-3.221z"/></svg><svg viewBox="0 0 28 24" id="reddit" xmlns="http://www.w3.org/2000/svg"><path d="M27.429 11.698a3.098 3.098 0 00-3.095-3.094c-.739 0-1.43.27-1.988.743l-.054.033c-2.012-1.287-4.68-2.11-7.632-2.22l1.762-5.01 4.397 1.05a2.529 2.529 0 002.526 2.52 2.53 2.53 0 002.526-2.526A2.53 2.53 0 0023.345.668a2.526 2.526 0 00-2.338 1.578L15.797 1l-2.163 6.147c-3.078.058-5.867.89-7.954 2.221a3.058 3.058 0 00-2.015-.765 3.097 3.097 0 00-3.093 3.094c0 1.055.544 2.03 1.427 2.598-.057.31-.086.623-.088.937 0 4.466 5.413 8.099 12.065 8.099 6.654 0 12.068-3.633 12.068-8.1a5.44 5.44 0 00-.082-.91 3.095 3.095 0 001.467-2.624zm-9.35 4.006a1.9 1.9 0 01-1.58-2.957 1.901 1.901 0 111.58 2.957zm.379 3.242c-.057.058-1.42 1.446-4.503 1.446-3.1 0-4.339-1.406-4.39-1.467a.487.487 0 01.736-.635c.028.031 1.062 1.131 3.654 1.131 2.635 0 3.792-1.14 3.804-1.15a.486.486 0 01.699.675zM8.243 13.803a1.901 1.901 0 113.801-.066 1.901 1.901 0 01-3.801.066z"/></svg><svg viewBox="0 0 16 16" id="search" xmlns="http://www.w3.org/2000/svg"><path d="M15.255 13.952l-3.133-3.132a6.412 6.412 0 001.294-3.861A6.465 6.465 0 006.958.5 6.465 6.465 0 00.501 6.96a6.465 6.465 0 006.457 6.457 6.418 6.418 0 004.003-1.4l3.115 3.114a.831.831 0 001.178 0 .832.832 0 000-1.178zM1.75 6.96a5.214 5.214 0 015.208-5.21 5.214 5.214 0 015.208 5.208 5.214 5.214 0 01-5.208 5.207 5.214 5.214 0 01-5.207-5.207z"/></svg><svg viewBox="0 0 20 20" id="settings" xmlns="http://www.w3.org/2000/svg"><path d="M11.078 0c.294 0 .557.183.656.457l.706 1.957c.253.063.47.126.654.192.201.072.46.181.78.33l1.644-.87a.702.702 0 01.832.131l1.446 1.495c.192.199.246.49.138.744l-.77 1.807c.127.235.23.436.307.604.084.183.188.435.312.76l1.797.77a.69.69 0 01.42.674l-.133 2.075a.69.69 0 01-.46.605l-1.702.605c-.049.235-.1.436-.154.606-.087.262-.186.52-.298.774l.855 1.89a.683.683 0 01-.168.793l-1.626 1.452a.703.703 0 01-.796.096l-1.676-.888a7.242 7.242 0 01-.81.367l-.732.274-.65 1.8a.697.697 0 01-.64.457L9.11 20a.697.697 0 01-.669-.447l-.766-2.027c-.261-.09-.52-.186-.776-.29a9.991 9.991 0 01-.618-.293l-1.9.812a.702.702 0 01-.755-.133L2.22 16.303a.683.683 0 01-.155-.783l.817-1.78a9.495 9.495 0 01-.302-.644 14.392 14.392 0 01-.3-.811L.49 11.74a.69.69 0 01-.49-.683l.07-1.921a.688.688 0 01.392-.594L2.34 7.64c.087-.319.163-.567.23-.748.095-.242.2-.48.314-.712L2.07 4.46a.683.683 0 01.15-.79l1.404-1.326a.702.702 0 01.75-.138l1.898.784c.21-.14.4-.253.572-.344.205-.109.48-.223.824-.346l.66-1.841A.696.696 0 018.984 0h2.094zm-1.054 7.019c-1.667 0-3.018 1.335-3.018 2.983 0 1.648 1.351 2.984 3.018 2.984 1.666 0 3.017-1.336 3.017-2.984s-1.35-2.983-3.017-2.983z"/></svg><svg viewBox="0 0 16 16" id="swap" xmlns="http://www.w3.org/2000/svg"><path d="M15.318 10.89a.626.626 0 00-.885 0l-2.473 2.474V5.292a.626.626 0 00-1.252 0v8.072L8.234 10.89a.626.626 0 10-.886.885l3.542 3.542.003.003a.614.614 0 00.043.038l.023.018.026.018c.009.007.018.012.028.018l.024.014.03.014.026.012.029.01c.01.004.019.008.029.01.01.004.019.006.029.008l.03.008.034.005.027.004a.636.636 0 00.123 0l.028-.004.033-.005.03-.008.03-.007.028-.01.029-.01.027-.013.029-.014.024-.015a.16.16 0 00.028-.017l.026-.019a.644.644 0 00.07-.059l3.54-3.541a.626.626 0 00.001-.886zM7.766 5.109a.626.626 0 00.885-.885L5.11.682 5.106.68a.634.634 0 00-.042-.038L5.04.624l-.026-.02-.028-.016-.025-.015-.029-.014C4.924.555 4.916.55 4.907.547l-.029-.01-.03-.011L4.82.518 4.79.511 4.754.506 4.729.502a.628.628 0 00-.124 0c-.008 0-.017.003-.025.004L4.544.51l-.029.007-.03.008-.028.01-.03.01-.025.013-.03.014-.024.014-.029.017-.025.02a.617.617 0 00-.07.06L.682 4.222a.626.626 0 00.886.885L4.04 2.636v8.072a.626.626 0 001.252 0V2.636L7.766 5.11z"/></svg><svg viewBox="0 0 26 22" id="telegram" xmlns="http://www.w3.org/2000/svg"><path fill-rule="evenodd" clip-rule="evenodd" d="M22.721.537A1.875 1.875 0 0125.3 2.57l-2.835 17.196c-.275 1.659-2.095 2.61-3.616 1.784-1.273-.691-3.163-1.756-4.863-2.867-.85-.557-3.454-2.338-3.134-3.605.275-1.084 4.65-5.157 7.15-7.578.982-.951.534-1.5-.625-.625-2.877 2.172-7.497 5.476-9.025 6.406-1.347.82-2.05.96-2.89.82-1.532-.255-2.953-.65-4.113-1.131-1.568-.65-1.492-2.805-.002-3.433l21.375-9z"/></svg><svg viewBox="0 0 28 22" id="twitter" xmlns="http://www.w3.org/2000/svg"><path d="M23.994 3.36A5.375 5.375 0 0026.352.392a10.738 10.738 0 01-3.406 1.302 5.375 5.375 0 00-9.145 4.893A15.23 15.23 0 012.746.982a5.375 5.375 0 001.66 7.163 5.345 5.345 0 01-2.428-.673v.068c0 2.554 1.8 4.754 4.303 5.26a5.376 5.376 0 01-2.422.092 5.375 5.375 0 005.011 3.726 10.762 10.762 0 01-6.662 2.296c-.429 0-.856-.024-1.282-.074a15.184 15.184 0 008.224 2.41A15.159 15.159 0 0024.413 5.986c0-.232-.006-.464-.017-.694a10.9 10.9 0 002.678-2.777 10.71 10.71 0 01-3.08.845z"/></svg><svg viewBox="0 0 21 19" id="view" xmlns="http://www.w3.org/2000/svg"><path d="M20 0H1.333A1.333 1.333 0 000 1.333v16a1.333 1.333 0 001.333 1.334H20a1.333 1.333 0 001.333-1.334v-16A1.333 1.333 0 0020 0zM1.333 17.333v-16H20v16H1.333z"/><path d="M3.946 7.333a2 2 0 100-4 2 2 0 000 4zm0-3.066a1.067 1.067 0 11-1.06 1.066 1.067 1.067 0 011.06-1.06v-.006zm9.24 3.98l-3.6 3.6L6.92 9.18a.667.667 0 00-.94 0l-4.034 4.087v1.886l4.527-4.526 2.193 2.16-2.5 2.5H8l5.633-5.634L18 14v-1.88l-3.874-3.873a.667.667 0 00-.94 0z"/></svg><svg viewBox="0 0 30 30" id="vk" xmlns="http://www.w3.org/2000/svg"><path d="M26.974 8.569c.175-.582 0-1.008-.828-1.008h-2.741c-.698 0-1.016.369-1.191.774 0 0-1.394 3.399-3.369 5.602-.637.642-.929.844-1.276.844-.174 0-.427-.202-.427-.784V8.57c0-.698-.2-1.008-.782-1.008h-4.307c-.436 0-.698.323-.698.63 0 .66.987.813 1.089 2.673V14.9c0 .884-.159 1.045-.509 1.045-.929 0-3.189-3.412-4.53-7.317-.261-.758-.525-1.065-1.225-1.065H3.44c-.784 0-.94.37-.94.774 0 .728.929 4.328 4.326 9.089 2.265 3.251 5.454 5.014 8.359 5.014 1.741 0 1.956-.392 1.956-1.067v-2.457c0-.782.167-.94.718-.94.405 0 1.102.205 2.728 1.771 1.858 1.858 2.166 2.692 3.21 2.692h2.74c.782 0 1.173-.392.948-1.164-.246-.769-1.134-1.888-2.311-3.212-.64-.755-1.596-1.567-1.888-1.973-.406-.524-.289-.755 0-1.22.002.001 3.34-4.701 3.688-6.3z"/></svg><svg viewBox="0 0 20 20" id="zoom-in" xmlns="http://www.w3.org/2000/svg"><path d="M19 19l-4.343-4.343m0 0A8 8 0 103.344 3.344a8 8 0 0011.313 11.313zM9 6v6M6 9h6"/></svg><svg viewBox="0 0 20 20" id="zoom-out" xmlns="http://www.w3.org/2000/svg"><path d="M19 19l-4.343-4.343m0 0A8 8 0 103.344 3.344a8 8 0 0011.313 11.313zM6 9h6"/></svg></svg>